<svg width="41" height="42" viewBox="0 0 41 42" fill="none" xmlns="http://www.w3.org/2000/svg">
<path d="M15.6008 39.7748C15.3861 39.775 15.174 39.7282 14.9794 39.6376C14.7848 39.5471 14.6123 39.415 14.4742 39.2507C14.336 39.0864 14.2355 38.8938 14.1798 38.6865C14.124 38.4792 14.1143 38.2622 14.1514 38.0508V38.0419L16.4024 25.6811H7.68749C7.44559 25.6811 7.20864 25.6126 7.00404 25.4835C6.79945 25.3544 6.63557 25.1701 6.53136 24.9518C6.42715 24.7335 6.38687 24.4901 6.41518 24.2499C6.44348 24.0097 6.53922 23.7824 6.69131 23.5942L24.242 1.89788C24.4418 1.64429 24.7191 1.46311 25.0316 1.38205C25.3441 1.30099 25.6745 1.32451 25.9724 1.44901C26.2702 1.57351 26.5191 1.79213 26.681 2.07146C26.8428 2.35078 26.9087 2.67543 26.8686 2.99575C26.8686 3.01977 26.8622 3.043 26.8582 3.06702L24.5992 15.4311H33.3125C33.5544 15.4311 33.7913 15.4996 33.9959 15.6287C34.2005 15.7577 34.3644 15.9421 34.4686 16.1604C34.5728 16.3787 34.6131 16.622 34.5848 16.8623C34.5565 17.1025 34.4608 17.3298 34.3087 17.5179L16.7555 39.2143C16.6176 39.3886 16.4422 39.5295 16.2422 39.6265C16.0423 39.7236 15.823 39.7743 15.6008 39.7748Z" fill="white"/>
</svg>
