<svg width="374" height="389" viewBox="0 0 374 389" fill="none" xmlns="http://www.w3.org/2000/svg">
<path d="M187 332.642C267.098 332.642 332.03 328.699 332.03 323.835C332.03 318.971 267.098 315.028 187 315.028C106.902 315.028 41.9702 318.971 41.9702 323.835C41.9702 328.699 106.902 332.642 187 332.642Z" fill="#F5F5F5"/>
<path d="M325.305 65.4453V289.509C325.306 289.944 325.224 290.374 325.063 290.775C324.902 291.176 324.666 291.539 324.369 291.844C324.072 292.149 323.719 292.39 323.331 292.551C322.943 292.713 322.529 292.792 322.111 292.785H221.879C221.509 292.791 221.141 292.721 220.796 292.578C220.452 292.435 220.139 292.222 219.874 291.952C219.6 291.668 219.384 291.329 219.237 290.957C219.091 290.584 219.017 290.184 219.022 289.782V65.173C219.009 64.8256 219.062 64.4789 219.178 64.1528C219.293 63.8267 219.47 63.5275 219.697 63.2724C219.924 63.0174 220.198 62.8114 220.502 62.6662C220.805 62.5211 221.134 62.4397 221.468 62.4267H249.937C250.338 62.4388 250.726 62.5757 251.051 62.8198C251.377 63.0639 251.624 63.404 251.762 63.796L252.936 66.8146C253.08 67.1997 253.332 67.5312 253.658 67.7668C253.985 68.0024 254.371 68.1314 254.769 68.1372H289.61C290.005 68.1343 290.391 68.0092 290.717 67.7778C291.043 67.5464 291.296 67.2193 291.443 66.838L292.617 63.796C292.761 63.4092 293.012 63.0755 293.338 62.8373C293.664 62.599 294.051 62.467 294.45 62.4578H322.508C323.256 62.4781 323.968 62.8018 324.49 63.3599C325.013 63.918 325.305 64.6663 325.305 65.4453Z" fill="#1FE624"/>
<path opacity="0.6" d="M232.224 71.4515H233.705V69.3976H232.224V71.4515Z" fill="white"/>
<path opacity="0.6" d="M229.816 71.4515H231.297V68.7129H229.816V71.4515Z" fill="white"/>
<path opacity="0.6" d="M227.407 71.4515H228.888V68.0283H227.407V71.4515Z" fill="white"/>
<path opacity="0.6" d="M224.983 71.4515H226.464V67.3436H224.983V71.4515Z" fill="white"/>
<path opacity="0.6" d="M311.729 68.6507H310.854V70.7046H311.729V68.6507Z" fill="white"/>
<path opacity="0.6" d="M312.342 71.4515H319.336V67.896H312.342V71.4515Z" fill="white"/>
<path opacity="0.2" d="M309.852 137.667H226.981C225.605 137.667 224.49 138.827 224.49 140.258V160.836C224.49 162.267 225.605 163.427 226.981 163.427H309.852C311.227 163.427 312.342 162.267 312.342 160.836V140.258C312.342 138.827 311.227 137.667 309.852 137.667Z" fill="white"/>
<g opacity="0.5">
<path d="M303.8 145.354H257.798C257.546 145.354 257.305 145.25 257.126 145.064C256.948 144.879 256.848 144.628 256.848 144.366C256.85 144.105 256.951 143.856 257.129 143.672C257.307 143.488 257.547 143.385 257.798 143.385H303.8C304.051 143.385 304.291 143.488 304.469 143.672C304.647 143.856 304.748 144.105 304.75 144.366C304.75 144.628 304.65 144.879 304.472 145.064C304.294 145.25 304.052 145.354 303.8 145.354Z" fill="white"/>
<path d="M281.36 151.531H257.798C257.674 151.532 257.55 151.507 257.435 151.459C257.32 151.41 257.215 151.338 257.127 151.247C257.039 151.156 256.968 151.047 256.921 150.928C256.873 150.808 256.848 150.68 256.848 150.551C256.848 150.289 256.948 150.037 257.126 149.852C257.305 149.667 257.546 149.563 257.798 149.563H281.36C281.612 149.563 281.854 149.667 282.032 149.852C282.21 150.037 282.31 150.289 282.31 150.551C282.31 150.68 282.285 150.808 282.238 150.928C282.19 151.047 282.12 151.156 282.031 151.247C281.943 151.338 281.838 151.41 281.723 151.459C281.608 151.507 281.484 151.532 281.36 151.531Z" fill="white"/>
<path d="M297.816 157.716H257.798C257.546 157.716 257.305 157.612 257.126 157.427C256.948 157.241 256.848 156.99 256.848 156.728C256.85 156.467 256.951 156.218 257.129 156.034C257.307 155.851 257.547 155.748 257.798 155.748H297.816C298.067 155.748 298.307 155.851 298.485 156.034C298.663 156.218 298.764 156.467 298.766 156.728C298.766 156.99 298.666 157.241 298.488 157.427C298.31 157.612 298.068 157.716 297.816 157.716Z" fill="white"/>
</g>
<path opacity="0.2" d="M309.852 199.907H226.981C225.605 199.907 224.49 201.067 224.49 202.498V223.076C224.49 224.507 225.605 225.667 226.981 225.667H309.852C311.227 225.667 312.342 224.507 312.342 223.076V202.498C312.342 201.067 311.227 199.907 309.852 199.907Z" fill="white"/>
<g opacity="0.5">
<path d="M288.84 207.594H257.798C257.546 207.594 257.305 207.49 257.126 207.304C256.948 207.119 256.848 206.868 256.848 206.606C256.85 206.345 256.951 206.096 257.129 205.912C257.307 205.728 257.547 205.625 257.798 205.625H288.84C289.091 205.625 289.331 205.728 289.509 205.912C289.687 206.096 289.788 206.345 289.79 206.606C289.79 206.868 289.69 207.119 289.512 207.304C289.334 207.49 289.092 207.594 288.84 207.594Z" fill="white"/>
<path d="M303.8 213.771H257.798C257.674 213.772 257.55 213.747 257.435 213.699C257.32 213.65 257.215 213.578 257.127 213.487C257.039 213.396 256.968 213.287 256.921 213.168C256.873 213.048 256.848 212.92 256.848 212.791C256.848 212.529 256.948 212.277 257.126 212.092C257.305 211.907 257.546 211.803 257.798 211.803H303.8C304.052 211.803 304.294 211.907 304.472 212.092C304.65 212.277 304.75 212.529 304.75 212.791C304.75 212.92 304.725 213.048 304.678 213.168C304.63 213.287 304.56 213.396 304.471 213.487C304.383 213.578 304.278 213.65 304.163 213.699C304.048 213.747 303.924 213.772 303.8 213.771Z" fill="white"/>
<path d="M297.816 219.956H257.798C257.546 219.956 257.305 219.852 257.126 219.667C256.948 219.481 256.848 219.23 256.848 218.968C256.848 218.839 256.873 218.711 256.921 218.591C256.968 218.472 257.039 218.363 257.127 218.272C257.215 218.181 257.32 218.109 257.435 218.06C257.55 218.011 257.674 217.987 257.798 217.988H297.816C297.94 217.987 298.064 218.011 298.179 218.06C298.294 218.109 298.399 218.181 298.487 218.272C298.576 218.363 298.646 218.472 298.694 218.591C298.741 218.711 298.766 218.839 298.766 218.968C298.766 219.23 298.666 219.481 298.488 219.667C298.31 219.852 298.068 219.956 297.816 219.956Z" fill="white"/>
</g>
<path opacity="0.2" d="M309.852 168.787H226.981C225.605 168.787 224.49 169.947 224.49 171.378V191.956C224.49 193.387 225.605 194.547 226.981 194.547H309.852C311.227 194.547 312.342 193.387 312.342 191.956V171.378C312.342 169.947 311.227 168.787 309.852 168.787Z" fill="white"/>
<g opacity="0.5">
<path d="M296.32 176.474H257.798C257.546 176.474 257.305 176.37 257.126 176.184C256.948 175.999 256.848 175.748 256.848 175.486C256.85 175.225 256.951 174.976 257.129 174.792C257.307 174.608 257.547 174.505 257.798 174.505H296.32C296.571 174.505 296.811 174.608 296.989 174.792C297.167 174.976 297.268 175.225 297.27 175.486C297.27 175.748 297.17 175.999 296.992 176.184C296.814 176.37 296.572 176.474 296.32 176.474Z" fill="white"/>
<path d="M303.8 182.651H257.798C257.674 182.652 257.55 182.627 257.435 182.579C257.32 182.53 257.215 182.458 257.127 182.367C257.039 182.276 256.968 182.167 256.921 182.048C256.873 181.928 256.848 181.8 256.848 181.671C256.848 181.409 256.948 181.157 257.126 180.972C257.305 180.787 257.546 180.683 257.798 180.683H303.8C304.052 180.683 304.294 180.787 304.472 180.972C304.65 181.157 304.75 181.409 304.75 181.671C304.75 181.8 304.725 181.928 304.678 182.048C304.63 182.167 304.56 182.276 304.471 182.367C304.383 182.458 304.278 182.53 304.163 182.579C304.048 182.627 303.924 182.652 303.8 182.651Z" fill="white"/>
<path d="M275.376 188.836H257.798C257.546 188.836 257.305 188.732 257.126 188.547C256.948 188.361 256.848 188.11 256.848 187.848C256.848 187.719 256.873 187.591 256.921 187.471C256.968 187.352 257.039 187.243 257.127 187.152C257.215 187.061 257.32 186.989 257.435 186.94C257.55 186.891 257.674 186.867 257.798 186.868H275.376C275.5 186.867 275.624 186.891 275.739 186.94C275.854 186.989 275.959 187.061 276.047 187.152C276.136 187.243 276.206 187.352 276.254 187.471C276.301 187.591 276.326 187.719 276.326 187.848C276.326 188.11 276.226 188.361 276.048 188.547C275.87 188.732 275.628 188.836 275.376 188.836Z" fill="white"/>
</g>
<path d="M246.182 188.494C249.57 183.997 246.04 179.352 246.04 179.352C246.071 180.252 245.947 181.151 245.673 182.005C244.746 175.781 238.522 172.669 238.522 172.669C239.54 174.225 239.36 176.839 239.36 176.839C239.293 176.243 239.09 175.671 238.769 175.172C238.448 174.673 238.017 174.261 237.512 173.969C237.537 174.844 237.379 175.715 237.048 176.521C236.717 177.327 236.223 178.049 235.598 178.637C234.862 179.302 234.278 180.13 233.89 181.06C233.502 181.99 233.318 182.999 233.354 184.013C232.561 182.986 232.837 180.955 232.837 180.955C232.062 182.071 231.654 183.419 231.676 184.796C231.698 186.173 232.147 187.506 232.957 188.595C232.177 188.456 231.45 188.095 230.855 187.552C230.855 187.552 231.603 190.719 234.513 190.719H244.933C247.7 190.719 248.673 186.953 248.673 186.953C247.949 187.634 247.102 188.158 246.182 188.494ZM240.056 190.05C239.44 189.309 239.079 188.375 239.031 187.397C238.732 188.254 238.732 189.193 239.031 190.05C238.337 189.96 237.685 189.661 237.153 189.189C236.621 188.718 236.234 188.095 236.039 187.397C236.35 187.66 236.716 187.841 237.108 187.926C237.108 187.926 236.129 186.813 237.243 184.549C238.358 182.285 239.487 182.262 239.726 180.776C239.726 180.776 241.514 182.853 241.222 184.931C241.556 184.322 241.746 183.639 241.776 182.939C241.776 182.939 243.362 185.467 242.427 187.879C242.86 187.733 243.236 187.444 243.496 187.055C243.387 187.913 242.974 188.698 242.338 189.256C241.701 189.815 240.888 190.106 240.056 190.073V190.05Z" fill="white"/>
<path opacity="0.2" d="M309.852 106.547H226.981C225.605 106.547 224.49 107.707 224.49 109.138V129.716C224.49 131.147 225.605 132.307 226.981 132.307H309.852C311.227 132.307 312.342 131.147 312.342 129.716V109.138C312.342 107.707 311.227 106.547 309.852 106.547Z" fill="white"/>
<g opacity="0.5">
<path d="M288.84 114.234H257.798C257.673 114.234 257.55 114.208 257.435 114.159C257.319 114.109 257.215 114.036 257.126 113.944C257.038 113.853 256.968 113.744 256.92 113.624C256.873 113.504 256.848 113.375 256.848 113.246C256.85 112.985 256.951 112.736 257.129 112.552C257.307 112.368 257.547 112.265 257.798 112.265H288.84C289.091 112.265 289.331 112.368 289.509 112.552C289.687 112.736 289.788 112.985 289.79 113.246C289.79 113.375 289.765 113.504 289.718 113.624C289.67 113.744 289.6 113.853 289.512 113.944C289.424 114.036 289.319 114.109 289.204 114.159C289.088 114.208 288.965 114.234 288.84 114.234Z" fill="white"/>
<path d="M303.8 120.411H257.798C257.674 120.412 257.55 120.387 257.435 120.339C257.32 120.29 257.215 120.218 257.127 120.127C257.039 120.036 256.968 119.927 256.921 119.808C256.873 119.688 256.848 119.56 256.848 119.431C256.848 119.169 256.948 118.917 257.126 118.732C257.305 118.547 257.546 118.443 257.798 118.443H303.8C304.052 118.443 304.294 118.547 304.472 118.732C304.65 118.917 304.75 119.169 304.75 119.431C304.75 119.56 304.725 119.688 304.678 119.808C304.63 119.927 304.56 120.036 304.471 120.127C304.383 120.218 304.278 120.29 304.163 120.339C304.048 120.387 303.924 120.412 303.8 120.411Z" fill="white"/>
<path d="M297.816 126.596H257.798C257.673 126.596 257.55 126.571 257.435 126.521C257.319 126.471 257.215 126.398 257.126 126.307C257.038 126.215 256.968 126.106 256.92 125.986C256.873 125.866 256.848 125.738 256.848 125.608C256.85 125.347 256.951 125.098 257.129 124.914C257.307 124.731 257.547 124.628 257.798 124.628H297.816C298.067 124.628 298.307 124.731 298.485 124.914C298.663 125.098 298.764 125.347 298.766 125.608C298.766 125.738 298.741 125.866 298.694 125.986C298.646 126.106 298.576 126.215 298.488 126.307C298.4 126.398 298.295 126.471 298.18 126.521C298.064 126.571 297.941 126.596 297.816 126.596Z" fill="white"/>
</g>
<path d="M233.81 118.256L234.894 116.155C234.928 116.091 234.978 116.038 235.038 116.001C235.099 115.964 235.168 115.945 235.238 115.945C235.308 115.95 235.376 115.974 235.434 116.015C235.492 116.056 235.538 116.113 235.567 116.179L237.063 119.757L238.141 116.739C238.167 116.665 238.214 116.602 238.275 116.556C238.337 116.511 238.409 116.485 238.485 116.482C238.56 116.48 238.634 116.502 238.697 116.545C238.76 116.588 238.809 116.65 238.836 116.723L239.809 119.057L240.878 116.179C240.907 116.106 240.955 116.043 241.018 115.999C241.08 115.954 241.154 115.93 241.23 115.93C241.306 115.93 241.379 115.954 241.442 115.999C241.505 116.043 241.553 116.106 241.581 116.179L242.831 119.617L243.758 116.661C243.779 116.588 243.822 116.524 243.879 116.476C243.937 116.429 244.007 116.401 244.08 116.397C244.153 116.391 244.226 116.407 244.291 116.443C244.356 116.478 244.41 116.533 244.446 116.599L245.232 118.155H249.084C249.305 117.308 249.352 116.422 249.223 115.555C249.094 114.688 248.792 113.859 248.336 113.121C246.159 109.418 241.978 110.826 239.809 113.689C237.654 110.81 233.481 109.371 231.281 113.059C230.809 113.816 230.497 114.669 230.368 115.561C230.239 116.454 230.296 117.365 230.533 118.233L233.81 118.256Z" fill="white"/>
<path d="M244.985 118.941C244.917 118.941 244.85 118.921 244.792 118.884C244.733 118.847 244.686 118.794 244.656 118.731L244.177 117.781L243.197 120.893C243.174 120.97 243.128 121.038 243.067 121.086C243.005 121.135 242.931 121.163 242.853 121.166C242.776 121.167 242.701 121.144 242.636 121.099C242.572 121.055 242.523 120.991 242.494 120.917L241.208 117.4L240.16 120.224C240.133 120.297 240.085 120.359 240.023 120.403C239.961 120.447 239.888 120.47 239.813 120.47C239.737 120.47 239.664 120.447 239.602 120.403C239.54 120.359 239.492 120.297 239.465 120.224L238.5 117.89L237.423 120.901C237.396 120.975 237.349 121.038 237.288 121.084C237.227 121.129 237.154 121.155 237.079 121.158C237.006 121.157 236.935 121.135 236.874 121.093C236.813 121.052 236.764 120.993 236.734 120.924L235.194 117.198L234.378 118.793C234.346 118.857 234.298 118.91 234.239 118.947C234.179 118.985 234.111 119.004 234.042 119.003H230.728C232.134 122.737 236.301 125.826 238.694 127.335C239.098 127.6 239.442 127.818 239.719 127.981C239.996 127.818 240.332 127.608 240.744 127.343C243.175 125.826 247.476 122.714 248.815 118.925L244.985 118.941Z" fill="white"/>
<path opacity="0.2" d="M309.852 231.027H226.981C225.605 231.027 224.49 232.187 224.49 233.618V254.196C224.49 255.627 225.605 256.787 226.981 256.787H309.852C311.227 256.787 312.342 255.627 312.342 254.196V233.618C312.342 232.187 311.227 231.027 309.852 231.027Z" fill="white"/>
<g opacity="0.5">
<path d="M288.84 238.714H257.798C257.546 238.714 257.305 238.61 257.126 238.424C256.948 238.239 256.848 237.988 256.848 237.726C256.85 237.465 256.951 237.216 257.129 237.032C257.307 236.848 257.547 236.745 257.798 236.745H288.84C289.091 236.745 289.331 236.848 289.509 237.032C289.687 237.216 289.788 237.465 289.79 237.726C289.79 237.988 289.69 238.239 289.512 238.424C289.334 238.61 289.092 238.714 288.84 238.714Z" fill="white"/>
<path d="M303.8 244.891H257.798C257.674 244.892 257.55 244.867 257.435 244.819C257.32 244.77 257.215 244.698 257.127 244.607C257.039 244.516 256.968 244.407 256.921 244.288C256.873 244.168 256.848 244.04 256.848 243.911C256.848 243.649 256.948 243.397 257.126 243.212C257.305 243.027 257.546 242.923 257.798 242.923H303.8C304.052 242.923 304.294 243.027 304.472 243.212C304.65 243.397 304.75 243.649 304.75 243.911C304.75 244.04 304.725 244.168 304.678 244.288C304.63 244.407 304.56 244.516 304.471 244.607C304.383 244.698 304.278 244.77 304.163 244.819C304.048 244.867 303.924 244.892 303.8 244.891Z" fill="white"/>
<path d="M297.816 251.076H257.798C257.546 251.076 257.305 250.972 257.126 250.787C256.948 250.601 256.848 250.35 256.848 250.088C256.848 249.959 256.873 249.831 256.921 249.711C256.968 249.592 257.039 249.483 257.127 249.392C257.215 249.301 257.32 249.229 257.435 249.18C257.55 249.131 257.674 249.107 257.798 249.108H297.816C297.94 249.107 298.064 249.131 298.179 249.18C298.294 249.229 298.399 249.301 298.487 249.392C298.576 249.483 298.646 249.592 298.694 249.711C298.741 249.831 298.766 249.959 298.766 250.088C298.766 250.35 298.666 250.601 298.488 250.787C298.31 250.972 298.068 251.076 297.816 251.076Z" fill="white"/>
</g>
<path d="M246.84 250.104V234.956L245.681 235.493L240.317 237.975L234.872 235.508L233.713 234.979V247.886C233.288 247.59 232.788 247.433 232.276 247.435C231.762 247.435 231.258 247.594 230.83 247.891C230.402 248.189 230.069 248.612 229.871 249.106C229.674 249.601 229.623 250.146 229.723 250.671C229.824 251.196 230.072 251.678 230.436 252.057C230.8 252.436 231.264 252.694 231.769 252.798C232.273 252.902 232.797 252.849 233.273 252.644C233.748 252.439 234.155 252.092 234.441 251.647C234.727 251.202 234.879 250.678 234.879 250.143V240.402L240.325 242.884L245.688 240.402V247.871C245.263 247.574 244.763 247.417 244.252 247.42C243.737 247.42 243.234 247.578 242.806 247.876C242.378 248.173 242.044 248.596 241.847 249.091C241.65 249.586 241.598 250.13 241.699 250.655C241.799 251.18 242.047 251.663 242.411 252.041C242.775 252.42 243.239 252.678 243.744 252.782C244.249 252.887 244.772 252.833 245.248 252.628C245.724 252.423 246.13 252.076 246.416 251.631C246.702 251.186 246.855 250.662 246.855 250.127C246.855 250.127 246.84 250.119 246.84 250.104Z" fill="white"/>
<path opacity="0.5" d="M319.822 82.7169H224.49V100.44H319.822V82.7169Z" fill="white"/>
<path opacity="0.3" d="M234.206 98.0669C237.689 98.0669 240.512 95.1306 240.512 91.5084C240.512 87.8862 237.689 84.9498 234.206 84.9498C230.724 84.9498 227.901 87.8862 227.901 91.5084C227.901 95.1306 230.724 98.0669 234.206 98.0669Z" fill="black"/>
<g opacity="0.5">
<path d="M293.41 89.47H247.408C247.157 89.47 246.915 89.3659 246.737 89.1806C246.559 88.9953 246.458 88.744 246.458 88.4819C246.46 88.2212 246.561 87.9719 246.739 87.7883C246.917 87.6047 247.158 87.5016 247.408 87.5016H293.41C293.66 87.5016 293.9 87.6049 294.077 87.7888C294.254 87.9726 294.353 88.2219 294.353 88.4819C294.354 88.6113 294.33 88.7396 294.283 88.8595C294.236 88.9793 294.167 89.0883 294.08 89.1801C293.992 89.272 293.888 89.3449 293.773 89.3946C293.658 89.4444 293.535 89.47 293.41 89.47Z" fill="white"/>
<path d="M287.426 95.6162H247.408C247.157 95.6162 246.915 95.5121 246.737 95.3268C246.559 95.1415 246.458 94.8902 246.458 94.6281C246.458 94.3661 246.559 94.1148 246.737 93.9295C246.915 93.7442 247.157 93.6401 247.408 93.6401H287.426C287.551 93.6401 287.674 93.6657 287.789 93.7154C287.904 93.7652 288.008 93.8381 288.096 93.9299C288.183 94.0218 288.252 94.1308 288.299 94.2506C288.346 94.3704 288.37 94.4987 288.369 94.6281C288.37 94.7575 288.346 94.8858 288.299 95.0057C288.252 95.1255 288.183 95.2345 288.096 95.3263C288.008 95.4182 287.904 95.4911 287.789 95.5408C287.674 95.5906 287.551 95.6162 287.426 95.6162Z" fill="white"/>
</g>
<g opacity="0.4">
<path d="M316.344 85.58C316.344 85.7533 316.278 85.9195 316.16 86.0421C316.042 86.1646 315.882 86.2335 315.716 86.2335C315.549 86.2335 315.389 86.1646 315.271 86.0421C315.154 85.9195 315.087 85.7533 315.087 85.58C315.087 85.4066 315.154 85.2404 315.271 85.1179C315.389 84.9953 315.549 84.9265 315.716 84.9265C315.882 84.9265 316.042 84.9953 316.16 85.1179C316.278 85.2404 316.344 85.4066 316.344 85.58Z" fill="white"/>
<path d="M316.344 87.914C316.344 88.0873 316.278 88.2535 316.16 88.3761C316.042 88.4986 315.882 88.5675 315.716 88.5675C315.549 88.5675 315.389 88.4986 315.271 88.3761C315.154 88.2535 315.087 88.0873 315.087 87.914C315.087 87.7406 315.154 87.5744 315.271 87.4518C315.389 87.3293 315.549 87.2604 315.716 87.2604C315.882 87.2604 316.042 87.3293 316.16 87.4518C316.278 87.5744 316.344 87.7406 316.344 87.914Z" fill="white"/>
<path d="M316.344 90.248C316.344 90.4213 316.278 90.5876 316.16 90.7101C316.042 90.8327 315.882 90.9015 315.716 90.9015C315.549 90.9015 315.389 90.8327 315.271 90.7101C315.154 90.5876 315.087 90.4213 315.087 90.248C315.087 90.0747 315.154 89.9084 315.271 89.7859C315.389 89.6633 315.549 89.5945 315.716 89.5945C315.882 89.5945 316.042 89.6633 316.16 89.7859C316.278 89.9084 316.344 90.0747 316.344 90.248Z" fill="white"/>
</g>
<path opacity="0.3" d="M319.822 106.547H315.716V256.787H319.822V106.547Z" fill="black"/>
<path d="M317.773 124.247C317.229 124.247 316.706 124.022 316.321 123.623C315.935 123.223 315.718 122.681 315.716 122.115V114.117C315.716 113.55 315.933 113.005 316.318 112.604C316.704 112.203 317.227 111.978 317.773 111.978C318.317 111.98 318.838 112.206 319.223 112.607C319.607 113.008 319.822 113.551 319.822 114.117V122.146C319.814 122.706 319.595 123.24 319.212 123.633C318.828 124.026 318.311 124.247 317.773 124.247Z" fill="#1FE624"/>
<path opacity="0.2" d="M317.773 124.247C317.229 124.247 316.706 124.022 316.321 123.623C315.935 123.223 315.718 122.681 315.716 122.115V114.117C315.716 113.55 315.933 113.005 316.318 112.604C316.704 112.203 317.227 111.978 317.773 111.978C318.317 111.98 318.838 112.206 319.223 112.607C319.607 113.008 319.822 113.551 319.822 114.117V122.146C319.814 122.706 319.595 123.24 319.212 123.633C318.828 124.026 318.311 124.247 317.773 124.247Z" fill="white"/>
<path opacity="0.3" d="M224.49 262.093H319.822V285.666C319.822 286.302 319.58 286.911 319.148 287.36C318.716 287.81 318.13 288.062 317.519 288.062H226.794C226.183 288.062 225.597 287.81 225.165 287.36C224.732 286.911 224.49 286.302 224.49 285.666V262.093Z" fill="black"/>
<g opacity="0.2">
<path d="M298.235 275.941H246.092C245.84 275.941 245.598 275.837 245.42 275.652C245.242 275.466 245.142 275.215 245.142 274.953C245.142 274.824 245.167 274.695 245.215 274.576C245.262 274.457 245.332 274.348 245.421 274.257C245.509 274.166 245.614 274.094 245.729 274.045C245.844 273.996 245.968 273.972 246.092 273.973H298.243C298.367 273.972 298.49 273.996 298.604 274.045C298.719 274.094 298.824 274.166 298.911 274.258C298.999 274.349 299.068 274.457 299.115 274.577C299.162 274.696 299.186 274.824 299.185 274.953C299.186 275.083 299.162 275.212 299.115 275.332C299.067 275.453 298.997 275.562 298.909 275.654C298.821 275.746 298.716 275.819 298.6 275.868C298.484 275.917 298.36 275.942 298.235 275.941Z" fill="white"/>
<path d="M284.607 281.846H259.713C259.589 281.847 259.465 281.822 259.35 281.774C259.235 281.725 259.13 281.653 259.042 281.562C258.954 281.471 258.883 281.362 258.836 281.243C258.788 281.123 258.763 280.995 258.763 280.866C258.763 280.604 258.863 280.352 259.041 280.167C259.22 279.982 259.461 279.878 259.713 279.878H284.607C284.859 279.878 285.1 279.982 285.278 280.167C285.456 280.352 285.557 280.604 285.557 280.866C285.557 280.995 285.532 281.123 285.484 281.243C285.436 281.362 285.366 281.471 285.278 281.562C285.19 281.653 285.085 281.725 284.97 281.774C284.854 281.822 284.731 281.847 284.607 281.846Z" fill="white"/>
</g>
<g opacity="0.1">
<path d="M266.834 68.0983L236.233 187.311L235.889 188.649L235.336 190.797L234.992 192.135L219.014 254.406V179.064L248.934 62.4267H249.914C250.319 62.4341 250.712 62.5689 251.042 62.8134C251.372 63.0578 251.623 63.4004 251.762 63.796L252.936 66.8146C253.081 67.1997 253.332 67.5312 253.658 67.7668C253.985 68.0024 254.372 68.1314 254.769 68.1372L266.834 68.0983Z" fill="white"/>
<path d="M325.305 128.977V204.318L306.216 278.672L305.76 280.477L302.611 292.746H283.275L286.417 280.485L286.925 278.516L289.454 268.667L289.955 266.698L290.972 262.754L291.473 260.786L292.483 256.841L292.984 254.873L308.894 192.897L309.635 190.034V190.026L325.305 128.977Z" fill="white"/>
<path d="M277.313 68.0983L246.9 186.564L246.72 187.272L245.052 193.769L244.873 194.477L219.867 291.913C219.593 291.629 219.376 291.29 219.23 290.918C219.083 290.545 219.01 290.145 219.014 289.743V278.283L240.527 194.5L240.706 193.792L242.374 187.296L242.554 186.588L272.96 68.0983H277.313Z" fill="white"/>
</g>
<path d="M240.834 141.534H238.664C238.487 141.534 238.343 141.684 238.343 141.868V142.53C238.343 142.714 238.487 142.864 238.664 142.864H240.834C241.011 142.864 241.155 142.714 241.155 142.53V141.868C241.155 141.684 241.011 141.534 240.834 141.534Z" fill="white"/>
<path d="M239.749 143.564C238.226 143.563 236.737 144.031 235.47 144.91C234.203 145.789 233.215 147.04 232.632 148.503C232.048 149.966 231.895 151.576 232.192 153.13C232.489 154.684 233.222 156.111 234.299 157.231C235.376 158.351 236.748 159.113 238.242 159.422C239.735 159.731 241.284 159.572 242.69 158.965C244.097 158.358 245.299 157.33 246.144 156.013C246.989 154.695 247.44 153.146 247.438 151.562C247.436 149.442 246.626 147.409 245.184 145.909C243.742 144.41 241.788 143.566 239.749 143.564ZM243.399 148.684L239.996 151.85C239.963 151.883 239.924 151.909 239.882 151.926C239.84 151.944 239.794 151.952 239.749 151.951C239.697 151.962 239.644 151.962 239.592 151.951C239.526 151.92 239.471 151.869 239.432 151.806C239.394 151.742 239.374 151.668 239.375 151.593V145.26C239.375 145.157 239.414 145.058 239.484 144.985C239.555 144.912 239.65 144.871 239.749 144.871C239.848 144.871 239.943 144.912 240.013 144.985C240.083 145.058 240.123 145.157 240.123 145.26V150.706L242.898 148.123C242.934 148.086 242.976 148.056 243.024 148.036C243.071 148.016 243.121 148.006 243.172 148.007C243.223 148.008 243.274 148.02 243.32 148.042C243.366 148.064 243.408 148.095 243.442 148.135C243.476 148.174 243.502 148.22 243.519 148.27C243.535 148.321 243.542 148.374 243.538 148.427C243.534 148.479 243.519 148.531 243.495 148.578C243.472 148.625 243.439 148.666 243.399 148.699V148.684Z" fill="white"/>
<path d="M241.514 213.818V205.112C241.514 204.677 241.348 204.259 241.052 203.951C240.756 203.643 240.354 203.47 239.936 203.47C239.728 203.469 239.523 203.511 239.331 203.593C239.139 203.675 238.964 203.796 238.818 203.949C238.671 204.102 238.555 204.283 238.476 204.483C238.397 204.682 238.357 204.896 238.358 205.112V213.818C237.471 214.198 236.738 214.886 236.284 215.766C235.831 216.645 235.685 217.661 235.871 218.64C236.057 219.619 236.564 220.5 237.305 221.133C238.047 221.767 238.976 222.113 239.936 222.113C240.895 222.113 241.825 221.767 242.566 221.133C243.308 220.5 243.815 219.619 244.001 218.64C244.187 217.661 244.041 216.645 243.588 215.766C243.134 214.886 242.401 214.198 241.514 213.818Z" fill="white"/>
<path d="M237.467 205.104H235.792C235.693 205.104 235.598 205.063 235.527 204.99C235.457 204.917 235.418 204.818 235.418 204.715C235.418 204.612 235.457 204.513 235.527 204.44C235.598 204.367 235.693 204.326 235.792 204.326H237.467C237.567 204.326 237.662 204.367 237.732 204.44C237.802 204.513 237.841 204.612 237.841 204.715C237.841 204.818 237.802 204.917 237.732 204.99C237.662 205.063 237.567 205.104 237.467 205.104Z" fill="white"/>
<path d="M237.467 207.026H235.792C235.693 207.026 235.598 206.985 235.527 206.912C235.457 206.839 235.418 206.74 235.418 206.637C235.418 206.534 235.457 206.435 235.527 206.362C235.598 206.289 235.693 206.248 235.792 206.248H237.467C237.567 206.248 237.662 206.289 237.732 206.362C237.802 206.435 237.841 206.534 237.841 206.637C237.841 206.74 237.802 206.839 237.732 206.912C237.662 206.985 237.567 207.026 237.467 207.026Z" fill="white"/>
<path d="M237.467 208.955H235.792C235.693 208.955 235.598 208.914 235.527 208.841C235.457 208.768 235.418 208.669 235.418 208.566C235.418 208.463 235.457 208.364 235.527 208.291C235.598 208.218 235.693 208.177 235.792 208.177H237.467C237.567 208.177 237.662 208.218 237.732 208.291C237.802 208.364 237.841 208.463 237.841 208.566C237.841 208.669 237.802 208.768 237.732 208.841C237.662 208.914 237.567 208.955 237.467 208.955Z" fill="white"/>
<path d="M237.467 210.877H235.792C235.693 210.877 235.598 210.836 235.527 210.763C235.457 210.69 235.418 210.591 235.418 210.488C235.418 210.385 235.457 210.286 235.527 210.213C235.598 210.14 235.693 210.099 235.792 210.099H237.467C237.567 210.099 237.662 210.14 237.732 210.213C237.802 210.286 237.841 210.385 237.841 210.488C237.841 210.591 237.802 210.69 237.732 210.763C237.662 210.836 237.567 210.877 237.467 210.877Z" fill="white"/>
<path d="M237.467 212.799H235.792C235.693 212.799 235.598 212.758 235.527 212.685C235.457 212.612 235.418 212.513 235.418 212.41C235.418 212.306 235.457 212.207 235.527 212.134C235.598 212.061 235.693 212.021 235.792 212.021H237.467C237.567 212.021 237.662 212.061 237.732 212.134C237.802 212.207 237.841 212.306 237.841 212.41C237.841 212.513 237.802 212.612 237.732 212.685C237.662 212.758 237.567 212.799 237.467 212.799Z" fill="white"/>
<path d="M125.335 157.032C124.258 155.818 125.784 154.511 125.335 152.823C124.886 151.134 121.595 146.435 121.124 145.766C120.652 145.097 114.077 149.812 114.122 150.8C114.167 151.788 117.825 158.463 121.602 160.54L125.335 157.032Z" fill="#EBB376"/>
<path d="M138.664 139.573C138.664 139.573 134.984 162.579 134.61 162.913C134.236 163.248 125.634 158.323 122.836 154.604L119.216 158.681C119.216 158.681 130.825 173.377 138.664 173.377C142.509 173.377 146.144 143.238 146.144 143.238L138.664 139.573Z" fill="#EBB376"/>
<path d="M157.589 270.946C158.86 278.291 160.214 287.619 161.471 299.616L155.165 300.098C155.165 300.098 151.485 287.137 147.76 273.016C144.155 259.416 140.512 244.751 140.063 239.562C139.143 229.012 161.306 193.59 161.306 193.59L179.423 195.325C176.954 201.977 152.831 235.571 152.024 241.694C151.433 246.128 154.26 251.808 157.589 270.946Z" fill="#EBB376"/>
<path d="M161.471 299.616L155.165 300.098C155.165 300.098 153.587 294.543 151.425 286.747L159.705 285.036C160.326 289.416 160.91 294.24 161.471 299.616Z" fill="#1FE624"/>
<path opacity="0.2" d="M161.471 299.616L155.165 300.098C155.165 300.098 153.587 294.543 151.425 286.747L159.705 285.036C160.326 289.416 160.91 294.24 161.471 299.616Z" fill="black"/>
<path opacity="0.7" d="M160.371 289.953L152.742 291.423L152.278 289.743L160.132 288.055C160.214 288.677 160.296 289.315 160.371 289.953Z" fill="white"/>
<path opacity="0.7" d="M161.471 299.616L155.165 300.098C155.165 300.098 154.312 297.087 153.011 292.404L160.491 290.886C160.825 293.625 161.151 296.535 161.471 299.616Z" fill="white"/>
<path d="M241.312 242.137L241.02 248.322C241.02 248.322 234.677 247.995 226.18 247.326L223.682 247.124C207.712 245.817 186.072 243.413 183.222 239.889C178.637 234.225 158.112 192.897 158.112 192.897L179.28 191.474C179.28 191.474 189.244 228.732 192.273 230.335C194.779 231.626 202.977 231.891 224.632 237.508L227.085 238.146C231.326 239.266 236.054 240.581 241.312 242.137Z" fill="#EBB376"/>
<path d="M170.918 222.563C170.918 222.563 182.52 219.279 188.81 214.674L182.415 191.474L158.688 199.822L170.918 222.563Z" fill="#263238"/>
<path opacity="0.2" d="M170.918 222.563C170.918 222.563 182.52 219.279 188.81 214.674L182.415 191.474L158.688 199.822L170.918 222.563Z" fill="black"/>
<path d="M154.567 298.752L161.703 298.511C161.82 298.508 161.934 298.547 162.028 298.62C162.121 298.694 162.189 298.798 162.219 298.915L163.543 304.323C163.597 304.555 163.56 304.8 163.441 305.004C163.322 305.208 163.13 305.355 162.907 305.412C162.842 305.42 162.777 305.42 162.712 305.412C160.401 305.412 158.718 305.357 155.816 305.458C154.028 305.513 148.642 305.886 146.182 305.972C143.721 306.057 143.309 303.529 144.312 303.257C148.8 302.082 152.181 300.549 153.587 299.149C153.852 298.89 154.203 298.748 154.567 298.752Z" fill="#263238"/>
<path d="M152.652 299.896C152.254 299.94 151.854 299.844 151.515 299.623C151.403 299.532 151.316 299.413 151.261 299.277C151.206 299.14 151.185 298.992 151.201 298.845C151.194 298.761 151.212 298.677 151.252 298.603C151.292 298.53 151.352 298.47 151.425 298.433C152.068 298.06 153.998 299.211 154.215 299.343C154.241 299.354 154.262 299.374 154.275 299.4C154.287 299.426 154.29 299.455 154.282 299.483C154.28 299.512 154.27 299.539 154.253 299.561C154.235 299.584 154.212 299.6 154.185 299.608C153.686 299.761 153.171 299.858 152.652 299.896ZM151.739 298.659C151.677 298.652 151.614 298.665 151.56 298.698C151.522 298.698 151.477 298.76 151.477 298.876C151.468 298.973 151.482 299.07 151.517 299.159C151.552 299.249 151.608 299.328 151.679 299.39C152.347 299.679 153.096 299.693 153.774 299.429C153.15 299.038 152.459 298.776 151.739 298.659Z" fill="#263238"/>
<path d="M154.148 299.623H154.088C153.475 299.297 152.255 297.99 152.36 297.344C152.376 297.235 152.428 297.136 152.507 297.063C152.587 296.991 152.688 296.95 152.794 296.947C152.899 296.928 153.007 296.933 153.11 296.961C153.213 296.99 153.31 297.04 153.392 297.11C154.088 297.663 154.282 299.444 154.297 299.507C154.298 299.533 154.292 299.559 154.28 299.582C154.268 299.605 154.251 299.625 154.23 299.639C154.202 299.642 154.173 299.637 154.148 299.623ZM152.891 297.196H152.824C152.644 297.196 152.629 297.313 152.629 297.352C152.562 297.748 153.34 298.744 153.961 299.196C153.903 298.501 153.642 297.841 153.213 297.305C153.169 297.265 153.118 297.235 153.063 297.217C153.007 297.198 152.949 297.191 152.891 297.196Z" fill="#263238"/>
<path d="M147.73 215.825C154.19 219.099 161.417 220.379 168.554 219.513C168.554 219.513 170.11 217.311 172.534 213.911C180.5 202.739 186.342 191.388 182.415 175.828L151.448 181.422L157.304 197.612C153.802 203.501 150.606 209.58 147.73 215.825Z" fill="#263238"/>
<path opacity="0.2" d="M151.425 181.461L157.282 197.651C158.806 194.626 160.533 191.717 162.451 188.945C162.249 189.062 159.017 190.913 158.292 191.925C158.292 191.925 154.664 188.813 151.447 181.453L151.425 181.461Z" fill="black"/>
<path d="M241.312 242.137L241.02 248.322C241.02 248.322 234.677 247.995 226.18 247.326L227.085 238.146C231.326 239.266 236.054 240.581 241.312 242.137Z" fill="#1FE624"/>
<path opacity="0.2" d="M241.312 242.137L241.02 248.322C241.02 248.322 234.677 247.995 226.18 247.326L227.085 238.146C231.326 239.266 236.054 240.581 241.312 242.137Z" fill="black"/>
<path opacity="0.7" d="M231.341 239.289L229.711 238.846L228.641 247.513L230.436 247.645L231.341 239.289Z" fill="white"/>
<path opacity="0.7" d="M232.164 239.515L231.132 247.7C237.019 248.112 241.02 248.322 241.02 248.322L241.312 242.137C238.066 241.18 235.014 240.309 232.164 239.515Z" fill="white"/>
<path d="M240.325 248.696L240.1 241.452C240.091 241.332 240.123 241.213 240.19 241.115C240.257 241.017 240.355 240.946 240.467 240.916L245.449 239.694C245.565 239.674 245.683 239.679 245.798 239.707C245.912 239.736 246.02 239.788 246.115 239.86C246.209 239.933 246.289 240.024 246.35 240.129C246.41 240.234 246.449 240.351 246.466 240.472C246.473 240.534 246.473 240.597 246.466 240.659C246.503 243.156 246.466 244.455 246.518 247.606C246.578 249.536 246.271 257.394 245.172 259.689C244.072 261.984 241.926 261.003 242.113 259.907C243.062 254.383 241.993 251.349 240.691 249.793C240.454 249.48 240.325 249.094 240.325 248.696Z" fill="#263238"/>
<path d="M241.379 250.812C241.421 251.237 241.332 251.664 241.125 252.033C241.046 252.145 240.94 252.232 240.818 252.287C240.696 252.342 240.562 252.362 240.43 252.344C240.349 252.342 240.271 252.319 240.202 252.276C240.132 252.234 240.074 252.175 240.033 252.103C239.696 251.387 240.781 249.333 240.871 249.108C240.881 249.083 240.899 249.062 240.922 249.049C240.945 249.036 240.972 249.032 240.998 249.038C241.026 249.042 241.052 249.056 241.072 249.077C241.093 249.098 241.106 249.125 241.11 249.155C241.252 249.696 241.342 250.251 241.379 250.812ZM240.235 251.753C240.235 251.821 240.25 251.887 240.28 251.948C240.293 251.978 240.314 252.003 240.34 252.021C240.367 252.039 240.398 252.049 240.43 252.049C240.521 252.064 240.614 252.053 240.7 252.018C240.785 251.982 240.86 251.923 240.916 251.846C241.17 251.115 241.17 250.314 240.916 249.582C240.565 250.257 240.334 250.993 240.235 251.753Z" fill="#263238"/>
<path d="M241.133 249.178L241.095 249.24C240.803 249.894 239.599 251.162 238.963 251.022C238.857 250.994 238.763 250.929 238.698 250.836C238.634 250.743 238.603 250.63 238.612 250.516C238.593 250.405 238.596 250.292 238.621 250.182C238.645 250.072 238.69 249.969 238.754 249.878C239.278 249.139 240.901 248.999 240.998 249.007C241.023 249.003 241.049 249.009 241.071 249.024C241.093 249.038 241.109 249.059 241.118 249.085C241.127 249.098 241.134 249.113 241.136 249.129C241.139 249.146 241.138 249.162 241.133 249.178ZM238.889 250.446V250.516C238.889 250.711 238.993 250.726 239.031 250.742C239.397 250.819 240.31 250.01 240.729 249.365C240.087 249.407 239.476 249.664 238.986 250.096C238.911 250.196 238.874 250.32 238.881 250.446H238.889Z" fill="#263238"/>
<path d="M147.865 149.29C147.401 150.232 147.117 150.792 147.117 150.792L139.801 148.326L134.64 146.583C135.65 142.339 137.071 138.213 138.881 134.267C142.232 126.791 148.246 126.55 151.537 132.711C153.662 136.796 149.637 145.735 147.865 149.29Z" fill="#1FE624"/>
<path opacity="0.6" d="M147.865 149.29C147.401 150.232 147.117 150.792 147.117 150.792L139.801 148.326L134.64 146.583C135.65 142.339 137.071 138.213 138.881 134.267C142.232 126.791 148.246 126.55 151.537 132.711C153.662 136.796 149.637 145.735 147.865 149.29Z" fill="white"/>
<path opacity="0.2" d="M147.864 149.29C147.401 150.232 147.116 150.792 147.116 150.792L139.801 148.326C140.572 145.076 142.095 142.071 144.237 139.573L147.864 149.29Z" fill="black"/>
<path d="M182.415 175.828C177.874 176.66 160.723 179.772 151.425 181.43C142.449 157.312 142.172 140.406 142.644 133.194C142.72 132.006 143.122 130.867 143.802 129.91C144.482 128.953 145.412 128.219 146.481 127.794C147.558 127.366 148.807 126.892 150.139 126.464C150.662 126.332 151.171 126.145 151.702 126.005C156.047 124.945 160.448 124.147 164.882 123.616C165.712 123.507 166.572 123.422 167.402 123.352C170.089 123.111 172.785 123.017 175.481 123.072C175.372 127.816 175.5 132.563 175.862 137.294C176.017 139.368 176.221 141.443 176.476 143.518C176.917 147.353 177.47 151.018 178.069 154.41C178.203 155.188 178.346 155.966 178.488 156.744C180.223 166.297 182.108 173.362 182.415 175.828Z" fill="#1FE624"/>
<path opacity="0.6" d="M182.415 175.828C177.874 176.66 160.723 179.772 151.425 181.43C142.449 157.312 142.172 140.406 142.644 133.194C142.72 132.006 143.122 130.867 143.802 129.91C144.482 128.953 145.412 128.219 146.481 127.794C147.558 127.366 148.807 126.892 150.139 126.464C150.662 126.332 151.171 126.145 151.702 126.005C156.047 124.945 160.448 124.147 164.882 123.616C165.712 123.507 166.572 123.422 167.402 123.352C170.089 123.111 172.785 123.017 175.481 123.072C175.372 127.816 175.5 132.563 175.862 137.294C176.017 139.368 176.221 141.443 176.476 143.518C176.917 147.353 177.47 151.018 178.069 154.41C178.203 155.188 178.346 155.966 178.488 156.744C180.223 166.297 182.108 173.362 182.415 175.828Z" fill="white"/>
<path opacity="0.2" d="M178.069 154.487C172.504 149.174 171 134.143 171 134.143L175.862 137.333C176.017 139.407 176.221 141.482 176.476 143.557C176.917 147.423 177.47 151.088 178.069 154.487Z" fill="black"/>
<path d="M160.992 108.422C160.902 112.989 161.418 121.212 164.874 123.616C163.807 125.269 162.41 126.664 160.779 127.706C159.147 128.747 157.319 129.412 155.419 129.654C151.762 130.229 151.133 127.615 151.679 125.997C156.22 123.974 155.487 120.349 154.088 117.066L160.992 108.422Z" fill="#EBB376"/>
<path opacity="0.2" d="M158.187 111.954L154.088 117.058C154.418 117.813 154.691 118.593 154.903 119.392C156.661 118.793 158.785 116.28 158.643 114.288C158.627 113.488 158.473 112.697 158.187 111.954Z" fill="black"/>
<path d="M143.848 98.0669C143.848 98.0669 141.761 99.7085 142.509 101.56C143.257 103.412 145.807 103.287 145.807 103.287V98.028L143.848 98.0669Z" fill="#263238"/>
<path d="M160.394 101.7C161.052 107.722 161.71 111.223 159.309 114.794C155.726 120.193 148.179 118.738 145.8 113.028C143.668 107.885 142.98 98.876 148.201 95.4917C149.352 94.7337 150.671 94.2954 152.032 94.2188C153.393 94.1422 154.749 94.4298 155.972 95.0542C157.196 95.6786 158.244 96.6189 159.018 97.7852C159.792 98.9515 160.266 100.305 160.394 101.716V101.7Z" fill="#EBB376"/>
<path d="M151.964 104.937C152.076 105.419 151.866 105.862 151.552 105.917C151.238 105.971 150.939 105.621 150.857 105.139C150.774 104.657 150.961 104.213 151.261 104.159C151.56 104.104 151.881 104.447 151.964 104.937Z" fill="#263238"/>
<path d="M146.683 105.894C146.795 106.368 146.578 106.819 146.271 106.874C145.965 106.928 145.658 106.57 145.568 106.096C145.478 105.621 145.673 105.17 145.98 105.116C146.286 105.061 146.608 105.435 146.683 105.894Z" fill="#263238"/>
<path d="M148.396 105.808C148.101 107.392 147.598 108.926 146.9 110.367C147.263 110.542 147.659 110.633 148.059 110.633C148.459 110.633 148.855 110.542 149.218 110.367L148.396 105.808Z" fill="#D58745"/>
<path d="M153.34 102.867C153.291 102.882 153.24 102.884 153.19 102.873C153.141 102.862 153.095 102.839 153.056 102.805C152.807 102.55 152.504 102.358 152.172 102.246C151.839 102.134 151.486 102.104 151.141 102.159C151.071 102.178 150.996 102.168 150.933 102.13C150.87 102.092 150.824 102.03 150.804 101.957C150.788 101.883 150.8 101.805 150.838 101.74C150.875 101.675 150.936 101.627 151.006 101.607C151.441 101.524 151.888 101.552 152.31 101.687C152.732 101.823 153.116 102.062 153.43 102.385C153.481 102.439 153.51 102.511 153.51 102.587C153.51 102.663 153.481 102.735 153.43 102.789C153.404 102.82 153.373 102.846 153.34 102.867Z" fill="#263238"/>
<path d="M151.732 112.242C152.395 112.059 153.005 111.712 153.512 111.232C154.018 110.751 154.406 110.15 154.642 109.48C154.653 109.441 154.65 109.399 154.631 109.362C154.613 109.326 154.582 109.298 154.544 109.286C154.508 109.275 154.468 109.279 154.434 109.296C154.399 109.313 154.372 109.342 154.357 109.379C154.128 109.996 153.763 110.55 153.292 110.994C152.82 111.439 152.255 111.762 151.642 111.939C151.624 111.943 151.607 111.951 151.592 111.963C151.576 111.974 151.564 111.989 151.554 112.006C151.544 112.022 151.538 112.041 151.535 112.06C151.532 112.079 151.533 112.099 151.537 112.118C151.542 112.137 151.55 112.154 151.561 112.17C151.572 112.186 151.586 112.199 151.602 112.209C151.618 112.219 151.635 112.226 151.654 112.229C151.672 112.232 151.691 112.231 151.709 112.227L151.732 112.242Z" fill="#263238"/>
<path d="M144.095 104.408C144.048 104.44 143.993 104.454 143.938 104.447C143.902 104.438 143.869 104.421 143.84 104.399C143.811 104.376 143.787 104.347 143.769 104.315C143.75 104.282 143.739 104.246 143.734 104.208C143.73 104.171 143.733 104.133 143.743 104.096C143.855 103.651 144.069 103.241 144.366 102.9C144.663 102.559 145.034 102.297 145.449 102.136C145.483 102.124 145.52 102.12 145.557 102.123C145.593 102.127 145.629 102.138 145.661 102.156C145.693 102.174 145.721 102.199 145.744 102.229C145.767 102.259 145.783 102.293 145.793 102.33C145.814 102.403 145.807 102.481 145.773 102.547C145.74 102.614 145.682 102.665 145.613 102.688C145.29 102.823 145.002 103.033 144.771 103.303C144.54 103.573 144.373 103.895 144.282 104.244C144.265 104.285 144.239 104.32 144.206 104.349C144.174 104.377 144.136 104.397 144.095 104.408Z" fill="#263238"/>
<path d="M168.113 102.556C168.612 102.118 169 101.561 169.245 100.932C169.49 100.303 169.584 99.6213 169.519 98.946C169.484 98.2587 169.236 97.6016 168.811 97.074C168.386 96.5464 167.808 96.1767 167.163 96.0208C167.624 95.7618 167.998 95.3618 168.233 94.8747C168.469 94.3877 168.555 93.8372 168.479 93.2978C168.263 91.345 164.298 90.3258 164.298 90.3258C164.298 90.3258 165.3 88.7076 162.054 87.4783C161.136 87.1113 160.15 86.9688 159.17 87.0619C158.191 87.155 157.245 87.4811 156.407 88.0151C156.407 88.0151 156.28 86.4591 153.101 86.5525C149.922 86.6459 149.548 89.2444 149.548 89.2444C149.548 89.2444 147.625 87.6884 145.561 89.8668C143.496 92.0452 144.753 95.0171 144.753 95.0171C144.753 95.0171 141.91 94.2391 141.656 96.7521C141.372 99.5218 144.902 100.035 144.902 100.035C146.288 98.9843 147.865 98.2398 149.537 97.8477C151.21 97.4557 152.942 97.4243 154.626 97.7557C154.716 104.851 159.862 106.874 159.862 106.874C160.827 109.242 161.213 111.821 160.984 114.382C161.869 113.804 162.647 113.066 163.281 112.203C164.388 112.136 165.424 111.619 166.168 110.764C167.275 109.208 166.235 108.43 166.235 108.43C166.89 108.109 167.473 107.648 167.944 107.077C168.416 106.505 168.767 105.837 168.973 105.116C169.519 102.805 168.113 102.556 168.113 102.556Z" fill="#263238"/>
<path d="M164.081 107.815C163.517 109.222 162.442 110.341 161.089 110.927C159.287 111.705 158.165 110.071 158.471 108.181C158.763 106.508 160.035 104.034 161.934 104.089C163.834 104.143 164.747 106.073 164.081 107.815Z" fill="#EBB376"/>
<path d="M143.728 101.14L143.848 98.0747C145.553 95.4528 159.601 93.1421 165.54 102.229L164.889 104.104C164.889 104.104 151.993 96.5187 143.728 101.14Z" fill="#1FE624"/>
<path opacity="0.6" d="M160.566 100.627C158.525 99.6209 156.36 98.9165 154.133 98.5337C151.931 98.13 149.677 98.1511 147.483 98.5959C146.39 98.8087 145.329 99.1697 144.326 99.6696C144.139 99.7552 143.96 99.8563 143.773 99.9574L143.728 101.132C151.956 96.5187 164.874 104.096 164.874 104.096L165.106 103.42C163.677 102.348 162.157 101.413 160.566 100.627Z" fill="white"/>
<path opacity="0.6" d="M147.191 97.25C148.371 96.9619 149.578 96.8158 150.789 96.8144H151.694L152.592 96.8844C153.192 96.9259 153.789 97.0065 154.38 97.1255C156.733 97.5645 159.005 98.3863 161.112 99.5607C162.647 100.413 164.089 101.435 165.413 102.61L165.54 102.253C159.616 93.1655 145.568 95.4762 143.848 98.098V98.5726C144.903 97.9847 146.027 97.5402 147.191 97.25Z" fill="white"/>
<path d="M160.663 106.586C160.94 106.15 161.747 105.715 161.994 106.586C162.241 107.457 161.194 107.971 161.007 107.971L160.222 108.694L159.877 108.228L160.566 107.38C160.499 107.112 160.534 106.828 160.663 106.586Z" fill="#1FE624"/>
<path d="M173.476 134.983C175.772 138.305 178.144 141.526 180.545 144.724C182.946 147.921 185.437 151.08 187.935 154.2L188.877 155.374L189.349 155.966L189.408 156.036C189.37 155.987 189.34 155.932 189.319 155.872C189.254 155.771 189.204 155.661 189.169 155.546C189.027 155.071 189.117 154.869 189.124 154.923C189.137 155.108 189.112 155.294 189.049 155.468C188.82 156.182 188.517 156.868 188.144 157.514C187.723 158.302 187.264 159.068 186.768 159.809C184.726 162.921 182.243 166.033 179.804 169.013L182.721 172.537C186.134 170.184 189.292 167.453 192.139 164.391C192.887 163.613 193.575 162.734 194.263 161.808C195.011 160.789 195.655 159.691 196.185 158.533C196.525 157.79 196.776 157.006 196.933 156.199C197.151 154.991 197.053 153.744 196.649 152.589C196.521 152.237 196.365 151.897 196.185 151.57L195.879 151.095L195.744 150.901L195.318 150.278L194.48 149.01C192.211 145.706 189.932 142.426 187.643 139.169C185.332 135.917 182.998 132.665 180.642 129.483L173.476 134.983Z" fill="#EBB376"/>
<path d="M181.839 166.686C180.687 167.822 179.415 166.243 177.799 166.749C176.184 167.254 171.696 170.724 171.067 171.199C170.439 171.673 175.024 178.481 175.974 178.427C176.924 178.372 183.305 174.537 185.257 170.522L181.839 166.686Z" fill="#EBB376"/>
<path d="M181.517 166.539C182.449 166.957 183.273 167.598 183.922 168.409C184.572 169.22 185.029 170.178 185.257 171.207L186.611 170.211C186.611 170.211 186.611 166.663 182.654 165.107L181.517 166.539Z" fill="#263238"/>
<path d="M182.751 166.959L183.821 165.784C183.894 165.703 183.991 165.65 184.097 165.633C184.203 165.616 184.311 165.636 184.404 165.691C185.49 166.365 186.275 167.458 186.588 168.733C186.612 168.826 186.61 168.925 186.582 169.017C186.554 169.109 186.502 169.191 186.431 169.254L185.317 170.226C185.264 170.272 185.202 170.306 185.136 170.324C185.069 170.342 185 170.345 184.932 170.333C184.864 170.32 184.8 170.292 184.744 170.251C184.687 170.21 184.641 170.156 184.606 170.094C184.122 169.191 183.51 168.37 182.789 167.659C182.741 167.616 182.703 167.564 182.675 167.505C182.648 167.446 182.632 167.382 182.628 167.317C182.625 167.252 182.634 167.187 182.655 167.125C182.676 167.063 182.709 167.007 182.751 166.959Z" fill="#263238"/>
<path opacity="0.2" d="M182.751 166.959L183.821 165.784C183.894 165.703 183.991 165.65 184.097 165.633C184.203 165.616 184.311 165.636 184.404 165.691C185.49 166.365 186.275 167.458 186.588 168.733C186.612 168.826 186.61 168.925 186.582 169.017C186.554 169.109 186.502 169.191 186.431 169.254L185.317 170.226C185.264 170.272 185.202 170.306 185.136 170.324C185.069 170.342 185 170.345 184.932 170.333C184.864 170.32 184.8 170.292 184.744 170.251C184.687 170.21 184.641 170.156 184.606 170.094C184.122 169.191 183.51 168.37 182.789 167.659C182.741 167.616 182.703 167.564 182.675 167.505C182.648 167.446 182.632 167.382 182.628 167.317C182.625 167.252 182.634 167.187 182.655 167.125C182.676 167.063 182.709 167.007 182.751 166.959Z" fill="white"/>
<path d="M185.01 169.954C184.993 169.953 184.976 169.948 184.962 169.938C184.948 169.929 184.936 169.915 184.928 169.9C184.427 168.962 183.792 168.109 183.043 167.371C183.03 167.361 183.019 167.349 183.011 167.334C183.003 167.319 182.999 167.302 182.998 167.286L184.098 166.049C184.108 166.043 184.12 166.04 184.131 166.04C184.143 166.04 184.154 166.043 184.165 166.049C184.674 166.342 185.122 166.739 185.48 167.216C185.839 167.693 186.101 168.241 186.252 168.826C186.255 168.847 186.254 168.869 186.247 168.889C186.24 168.909 186.229 168.928 186.214 168.943L185.1 169.907L185.01 169.954Z" fill="#1FE624"/>
<path d="M175.481 123.111C179.505 123.111 188.9 139.573 188.9 139.573L180.836 146.801C177.755 143.829 171.935 138.92 169.497 135.356C164.837 128.681 168.674 123.103 175.481 123.111Z" fill="#1FE624"/>
<path opacity="0.6" d="M175.481 123.111C179.505 123.111 188.9 139.573 188.9 139.573L180.836 146.801C177.755 143.829 171.935 138.92 169.497 135.356C164.837 128.681 168.674 123.103 175.481 123.111Z" fill="white"/>
<path d="M173.012 139.425C175.324 135.215 178.962 131.964 183.312 130.222L186.641 135.302C186.641 135.302 180.612 139.068 177.284 143.86C177.276 143.837 173.11 140.133 173.012 139.425Z" fill="#263238"/>
<path d="M175.496 131.179L179.011 128.448C179.183 128.316 179.397 128.259 179.608 128.29C179.819 128.32 180.01 128.436 180.141 128.611L186.289 136.928C186.419 137.105 186.475 137.327 186.447 137.548C186.419 137.768 186.309 137.967 186.14 138.103L182.736 140.88C182.652 140.949 182.555 140.999 182.452 141.029C182.349 141.058 182.241 141.067 182.135 141.053C182.028 141.039 181.926 141.004 181.833 140.949C181.739 140.894 181.658 140.82 181.592 140.732L175.339 132.353C175.21 132.176 175.154 131.952 175.184 131.732C175.213 131.512 175.325 131.313 175.496 131.179Z" fill="#263238"/>
<path opacity="0.2" d="M175.496 131.179L179.011 128.448C179.183 128.316 179.397 128.259 179.608 128.29C179.819 128.32 180.01 128.436 180.141 128.611L186.289 136.928C186.419 137.105 186.475 137.327 186.447 137.548C186.419 137.768 186.309 137.967 186.14 138.103L182.736 140.88C182.652 140.949 182.555 140.999 182.452 141.029C182.349 141.058 182.241 141.067 182.135 141.053C182.028 141.039 181.926 141.004 181.833 140.949C181.739 140.894 181.658 140.82 181.592 140.732L175.339 132.353C175.21 132.176 175.154 131.952 175.184 131.732C175.213 131.512 175.325 131.313 175.496 131.179Z" fill="white"/>
<path opacity="0.2" d="M182.235 140.686C182.168 140.687 182.102 140.671 182.042 140.64C181.982 140.609 181.931 140.563 181.891 140.507L175.63 132.136C175.596 132.087 175.571 132.032 175.556 131.973C175.542 131.914 175.539 131.853 175.548 131.793C175.554 131.733 175.573 131.675 175.603 131.622C175.632 131.57 175.672 131.525 175.72 131.49L179.236 128.759C179.313 128.703 179.404 128.673 179.498 128.673C179.564 128.673 179.629 128.688 179.689 128.718C179.748 128.747 179.801 128.791 179.842 128.845L185.99 137.177C186.061 137.272 186.092 137.393 186.078 137.512C186.064 137.631 186.006 137.74 185.915 137.815L182.512 140.585C182.435 140.653 182.336 140.689 182.235 140.686Z" fill="white"/>
<path d="M159.758 139.262C159.796 139.364 159.819 139.472 159.825 139.581C159.856 139.617 159.879 139.659 159.892 139.706C159.901 140.028 159.842 140.35 159.72 140.647C159.645 140.831 159.513 140.983 159.345 141.08C159.177 141.177 158.983 141.214 158.793 141.184L158.748 141.316C158.737 141.393 158.737 141.472 158.748 141.549C159.135 141.676 159.484 141.907 159.758 142.218C159.918 142.281 160.073 142.356 160.222 142.444C160.271 142.472 160.318 142.504 160.364 142.537C160.736 142.804 161.082 143.109 161.396 143.448L161.216 143.658L161.351 143.759L162.338 144.537L162.458 144.646L162.66 144.545C162.74 144.497 162.817 144.445 162.892 144.389C163.206 144.156 163.528 143.876 163.834 143.611C163.834 143.611 163.834 143.611 163.834 143.557L164.223 143.253L164.567 143.175C163.485 141.246 161.797 139.763 159.788 138.974C159.8 139.071 159.79 139.17 159.758 139.262Z" fill="#1FE624"/>
<path d="M148.732 153.826C148.777 153.484 148.784 153.352 148.814 153.048C148.817 153.036 148.822 153.024 148.829 153.014C148.836 153.003 148.845 152.994 148.856 152.988C148.866 152.981 148.878 152.977 148.89 152.975C148.902 152.974 148.915 152.975 148.927 152.978L149.45 153.173C149.458 153.181 149.462 153.192 149.462 153.204C149.462 153.215 149.458 153.226 149.45 153.235V153.297L150.004 153.344H150.176L150.221 152.994L150.61 153.033V153.149C151.425 153.064 154.193 152.745 154.641 152.457C155.191 151.741 155.621 150.933 155.913 150.068C155.544 149.232 155.473 148.286 155.711 147.4C155.711 147.283 155.771 147.065 155.838 146.785C155.566 146.706 155.3 146.602 155.045 146.474C154.661 146.77 154.227 146.989 153.766 147.12C153.79 146.913 153.859 146.714 153.97 146.54C154.08 146.365 154.228 146.22 154.402 146.116C155.287 145.493 155.915 144.546 156.16 143.463C156.174 143.39 156.191 143.317 156.212 143.245C155.839 143.372 155.456 143.469 155.068 143.533L155.015 143.261L154.851 143.315L153.639 143.681L153.489 143.728C153.47 143.804 153.457 143.882 153.452 143.961C153.452 144.055 153.452 144.156 153.452 144.249C153.452 144.654 153.452 145.089 153.527 145.509C153.527 145.509 153.527 145.548 153.527 145.572V146.07L153.34 146.505L152.809 146.357L152.876 145.805C152.875 145.676 152.908 145.549 152.973 145.439C152.845 145.073 152.749 144.696 152.689 144.311C152.681 144.192 152.681 144.073 152.689 143.953C152.674 143.816 152.674 143.678 152.689 143.541C152.701 143.452 152.727 143.365 152.764 143.284C152.816 143.162 152.898 143.057 153.003 142.981L153.1 142.919H153.153H153.228L153.37 142.864L154.559 142.428L154.813 142.343L154.768 142.148C155.306 141.886 155.896 141.761 156.489 141.783C156.709 141.747 156.932 141.731 157.155 141.736C157.133 141.688 157.108 141.641 157.08 141.596L157.454 141.464C157.593 141.449 157.733 141.449 157.873 141.464C157.939 141.263 157.982 141.053 158 140.841C157.863 140.743 157.753 140.61 157.681 140.455C157.609 140.299 157.577 140.127 157.588 139.954C157.424 139.863 157.293 139.718 157.214 139.542C157.265 139.556 157.318 139.558 157.37 139.549C157.421 139.539 157.47 139.518 157.514 139.488C157.329 139.361 157.18 139.187 157.08 138.982C157.264 138.984 157.446 138.941 157.611 138.857C157.49 138.774 157.345 138.735 157.199 138.749C157.249 138.714 157.301 138.685 157.357 138.663H157.207C152.136 138.663 148.022 143.891 148.022 150.333C148.018 151.819 148.245 153.295 148.695 154.705C148.688 154.412 148.701 154.118 148.732 153.826Z" fill="#1FE624"/>
<path d="M164.822 143.743V143.798L164.35 144.062C164.249 144.138 164.13 144.184 164.006 144.195C163.787 144.518 163.536 144.818 163.258 145.089C163.176 145.176 163.089 145.256 162.997 145.33C162.892 145.415 162.779 145.488 162.66 145.548C162.584 145.588 162.504 145.617 162.421 145.634C162.298 145.669 162.169 145.669 162.047 145.634L161.942 145.579H161.89L161.83 145.533L161.695 145.439L160.67 144.661L160.453 144.498L160.334 144.646L160.214 144.568H160.162L160.117 144.529C160.001 145.132 159.826 145.722 159.593 146.287C159.433 146.91 159.241 147.523 159.017 148.123L158.389 149.858C160.104 152.898 161.229 156.257 161.703 159.747H161.777L161.852 160.198L161.448 160.322L161.531 160.641C164.41 158.673 166.363 154.814 166.363 150.372C166.405 148.061 165.875 145.778 164.822 143.743Z" fill="#1FE624"/>
<path d="M160.91 160.54V160.416L160.618 160.509L160.304 160.035L160.491 159.988C159.969 157.092 158.827 154.355 157.147 151.982C156.721 152.698 156.205 153.352 155.614 153.927C154.694 154.651 151.126 154.425 150.52 154.379V154.589L150.116 154.487L150.176 154.052L149.428 153.99C149.428 153.99 149.428 153.99 149.428 154.028C149.496 154.041 149.558 154.08 149.6 154.137C149.606 154.148 149.609 154.16 149.609 154.172C149.609 154.185 149.606 154.197 149.6 154.207C149.6 154.207 149.6 154.246 149.555 154.254C149.496 154.238 149.445 154.199 149.413 154.145C149.413 154.223 149.458 154.316 149.413 154.355C149.406 154.359 149.398 154.361 149.39 154.361C149.383 154.361 149.375 154.359 149.368 154.355C149.354 154.355 149.34 154.35 149.328 154.342C149.316 154.334 149.306 154.322 149.301 154.309C149.286 154.266 149.286 154.219 149.301 154.176C149.138 154.465 149.075 154.802 149.121 155.133C149.119 155.15 149.114 155.167 149.106 155.182C149.098 155.197 149.086 155.21 149.073 155.22C149.06 155.23 149.044 155.238 149.028 155.241C149.012 155.245 148.995 155.245 148.979 155.242C150.475 159.132 153.609 161.886 157.259 161.886C158.589 161.88 159.895 161.519 161.052 160.836L160.91 160.54Z" fill="#1FE624"/>
<path d="M267.941 306.003H107.368V310.025H273.588C273.148 308.84 272.372 307.822 271.364 307.104C270.356 306.386 269.163 306.002 267.941 306.003Z" fill="#263238"/>
<path d="M51.7841 179.391L67.1779 190.61H116.688C117.365 190.61 118.013 190.89 118.492 191.387C118.97 191.885 119.239 192.559 119.239 193.263C119.239 193.967 118.97 194.641 118.492 195.139C118.013 195.636 117.365 195.916 116.688 195.916H66.0559L50.2731 187.319C50.2731 187.319 47.3485 181.391 51.7841 179.391Z" fill="#263238"/>
<path opacity="0.1" d="M51.7841 179.391L67.1779 190.61H116.688C117.365 190.61 118.013 190.89 118.492 191.387C118.97 191.885 119.239 192.559 119.239 193.263C119.239 193.967 118.97 194.641 118.492 195.139C118.013 195.636 117.365 195.916 116.688 195.916H66.0559L50.2731 187.319C50.2731 187.319 47.3485 181.391 51.7841 179.391Z" fill="white"/>
<path d="M103.022 324.978H91.3683L50.2283 177.353H61.8821L103.022 324.978Z" fill="#263238"/>
<path opacity="0.1" d="M50.2283 177.353H61.8821L103.022 324.978H91.3683L50.2283 177.353Z" fill="white"/>
<path opacity="0.1" d="M103.022 324.978H94.3602L53.2202 177.353H61.8821L103.022 324.978Z" fill="white"/>
<path d="M214.676 314.055C214.001 312.041 212.739 310.294 211.066 309.059C209.393 307.824 207.392 307.161 205.341 307.162H151.994L150.647 304.828H75.8472C75.4682 304.831 75.095 304.925 74.7567 305.102C74.4184 305.28 74.1244 305.537 73.8975 305.853C73.6707 306.169 73.5173 306.535 73.4494 306.923C73.3815 307.31 73.4008 307.709 73.506 308.088L78.5176 324.947H86.9999L88.264 320.536C88.4073 320.032 88.703 319.589 89.1072 319.274C89.5115 318.959 90.0027 318.787 90.508 318.786H201.04C202.344 318.785 203.604 319.277 204.586 320.17L209.919 325.01H218.319L214.676 314.055Z" fill="#1FE624"/>
<path opacity="0.2" d="M214.676 314.055C214.001 312.041 212.739 310.294 211.066 309.059C209.393 307.824 207.392 307.161 205.341 307.162H151.994L150.647 304.828H75.8472C75.4682 304.831 75.095 304.925 74.7567 305.102C74.4184 305.28 74.1244 305.537 73.8975 305.853C73.6707 306.169 73.5173 306.535 73.4494 306.923C73.3815 307.31 73.4008 307.709 73.506 308.088L78.5176 324.947H86.9999L88.264 320.536C88.4073 320.032 88.703 319.589 89.1072 319.274C89.5115 318.959 90.0027 318.787 90.508 318.786H201.04C202.344 318.785 203.604 319.277 204.586 320.17L209.919 325.01H218.319L214.676 314.055Z" fill="black"/>
<path d="M293.119 324.978H284.719L279.385 320.139C278.404 319.246 277.144 318.754 275.84 318.754H165.308C164.803 318.756 164.311 318.928 163.907 319.243C163.503 319.558 163.207 320.001 163.064 320.505L161.792 324.978H153.34L148.306 308.088C148.195 307.707 148.171 307.305 148.237 306.913C148.302 306.521 148.454 306.151 148.682 305.831C148.909 305.511 149.205 305.251 149.547 305.072C149.888 304.892 150.265 304.798 150.647 304.797H174.426L185.145 307.131H280.141C282.196 307.132 284.2 307.8 285.873 309.041C287.546 310.282 288.805 312.035 289.476 314.055L293.119 324.978Z" fill="#1FE624"/>
<path d="M202.304 320.816H74.7702L73.2742 324.978H205.296L202.304 320.816Z" fill="#263238"/>
<path d="M180.814 324.978H169.16L128.02 177.353H139.674L180.814 324.978Z" fill="#263238"/>
<path opacity="0.2" d="M128.02 177.353H139.674L180.814 324.978H169.16L128.02 177.353Z" fill="white"/>
<path opacity="0.2" d="M180.814 324.978H172.152L131.012 177.353H139.674L180.814 324.978Z" fill="white"/>
<path d="M144.88 183.344L142.92 176.513C142.738 175.864 142.358 175.294 141.837 174.89C141.316 174.485 140.683 174.269 140.033 174.272H88.4211L88.6455 172.716C93.6975 172.608 98.7396 172.203 103.748 171.502C103.944 171.474 104.132 171.403 104.301 171.296C104.469 171.189 104.615 171.046 104.729 170.878C104.842 170.709 104.922 170.518 104.961 170.316C105.001 170.115 105 169.907 104.959 169.705L100.621 148.015C100.526 147.532 100.289 147.093 99.9434 146.757C99.5976 146.421 99.16 146.205 98.6911 146.14C86.4801 144.451 74.108 144.451 61.897 146.14C61.701 146.168 61.5128 146.238 61.344 146.346C61.1752 146.453 61.0294 146.596 60.9158 146.764C60.8021 146.933 60.723 147.124 60.6834 147.326C60.6437 147.527 60.6443 147.735 60.6852 147.937L65.0087 169.604C65.0999 170.087 65.3356 170.528 65.6823 170.863C66.0289 171.199 66.4686 171.412 66.9385 171.471C68.5916 171.697 70.2447 171.884 71.8903 172.047L71.06 174.272H50.475C49.9478 174.27 49.4294 174.413 48.9723 174.686C48.5152 174.959 48.1356 175.353 47.872 175.828L45.052 180.683C44.8193 181.099 44.6826 181.566 44.6527 182.047C44.6229 182.527 44.7007 183.008 44.88 183.452L48.0291 191.45C48.2531 192.026 48.6379 192.52 49.1338 192.866C49.6298 193.213 50.2141 193.397 50.8116 193.395H138.38C138.892 193.398 139.396 193.264 139.843 193.007C140.291 192.75 140.668 192.377 140.938 191.925L144.566 185.895C144.79 185.518 144.934 185.095 144.988 184.655C145.043 184.215 145.006 183.768 144.88 183.344Z" fill="#1FE624"/>
<path opacity="0.2" d="M71.7258 175.75L73.1321 168.499C73.188 168.196 73.3443 167.922 73.5738 167.726C73.8033 167.53 74.0916 167.424 74.3887 167.426H84.1875C84.5274 167.428 84.8527 167.57 85.0924 167.82C85.3321 168.071 85.4666 168.41 85.4666 168.764V176.015C85.4666 176.368 85.3321 176.707 85.0924 176.958C84.8527 177.209 84.5274 177.351 84.1875 177.353H72.9675C72.7782 177.351 72.5916 177.306 72.4211 177.22C72.2507 177.135 72.1006 177.011 71.9819 176.857C71.8631 176.704 71.7785 176.525 71.7342 176.334C71.6899 176.142 71.6871 175.943 71.7258 175.75Z" fill="black"/>
<path opacity="0.2" d="M66.5196 168.157L62.8319 149.633C62.793 149.44 62.7958 149.241 62.8401 149.05C62.8844 148.859 62.9691 148.681 63.0881 148.528C63.207 148.375 63.3572 148.252 63.5276 148.167C63.6981 148.082 63.8846 148.038 64.0736 148.038H97.1352C97.4276 148.039 97.7107 148.145 97.9369 148.337C98.163 148.53 98.3184 148.798 98.3769 149.096L102.027 167.682C102.06 167.862 102.057 168.047 102.017 168.226C101.977 168.404 101.902 168.572 101.797 168.718C101.691 168.865 101.557 168.987 101.404 169.076C101.25 169.166 101.08 169.221 100.905 169.238L89.4308 170.382C89.2143 170.404 88.996 170.367 88.7969 170.276C88.5979 170.184 88.4247 170.042 88.2939 169.861L85.8479 166.508C85.731 166.343 85.5788 166.21 85.4034 166.118C85.2281 166.026 85.0344 165.979 84.8381 165.979H74.2689C73.9978 165.98 73.7339 166.07 73.515 166.236C73.296 166.402 73.1331 166.636 73.0496 166.904L72.3689 169.122C72.2705 169.437 72.0626 169.702 71.7859 169.866C71.5092 170.03 71.1837 170.081 70.8729 170.009L67.477 169.153C67.2431 169.098 67.0288 168.976 66.8593 168.799C66.6898 168.623 66.5719 168.4 66.5196 168.157Z" fill="black"/>
<path opacity="0.2" d="M49.1884 182.776H133.368C133.732 182.776 134.086 182.893 134.382 183.112C134.678 183.331 134.902 183.64 135.021 183.997L136.876 189.443C136.97 189.718 136.998 190.012 136.96 190.301C136.921 190.589 136.816 190.864 136.655 191.102C136.493 191.34 136.278 191.534 136.029 191.668C135.78 191.801 135.504 191.871 135.223 191.87H51.395C51.05 191.872 50.7124 191.767 50.4248 191.569C50.1372 191.371 49.9125 191.089 49.7793 190.758L47.5727 185.312C47.4606 185.034 47.4162 184.732 47.4433 184.433C47.4704 184.133 47.5682 183.845 47.728 183.594C47.8878 183.343 48.1048 183.137 48.3595 182.994C48.6143 182.852 48.899 182.776 49.1884 182.776Z" fill="black"/>
<path d="M141.544 179.391L156.938 190.61H206.448C206.783 190.61 207.115 190.679 207.424 190.812C207.734 190.945 208.015 191.141 208.252 191.387C208.489 191.633 208.676 191.926 208.805 192.248C208.933 192.57 208.999 192.915 208.999 193.263C208.999 193.611 208.933 193.956 208.805 194.278C208.676 194.6 208.489 194.893 208.252 195.139C208.015 195.385 207.734 195.581 207.424 195.714C207.115 195.847 206.783 195.916 206.448 195.916H155.816L140.033 187.319C140.033 187.319 137.108 181.391 141.544 179.391Z" fill="#263238"/>
<path opacity="0.2" d="M141.544 179.391L156.938 190.61H206.448C206.783 190.61 207.115 190.679 207.424 190.812C207.734 190.945 208.015 191.141 208.252 191.387C208.489 191.633 208.676 191.926 208.805 192.248C208.933 192.57 208.999 192.915 208.999 193.263C208.999 193.611 208.933 193.956 208.805 194.278C208.676 194.6 208.489 194.893 208.252 195.139C208.015 195.385 207.734 195.581 207.424 195.714C207.115 195.847 206.783 195.916 206.448 195.916H155.816L140.033 187.319C140.033 187.319 137.108 181.391 141.544 179.391Z" fill="white"/>
</svg>
