<svg width="175" height="178" viewBox="0 0 175 178" fill="none" xmlns="http://www.w3.org/2000/svg">
<g opacity="0.2">
<path d="M61.25 89C49.6468 89 38.5188 84.3116 30.3141 75.9663C22.1094 67.6209 17.5 56.3021 17.5 44.5C17.5 32.6979 22.1094 21.3791 30.3141 13.0337C38.5188 4.68838 49.6468 0 61.25 0C72.8532 0 83.9812 4.68838 92.1859 13.0337C100.391 21.3791 105 32.6979 105 44.5C105 56.3021 100.391 67.6209 92.1859 75.9663C83.9812 84.3116 72.8532 89 61.25 89ZM61.25 71.2C64.6972 71.2 68.1106 70.5094 71.2954 69.1676C74.4802 67.8258 77.374 65.8591 79.8116 63.3798C82.2491 60.9004 84.1827 57.957 85.5018 54.7176C86.821 51.4783 87.5 48.0063 87.5 44.5C87.5 40.9937 86.821 37.5217 85.5018 34.2824C84.1827 31.043 82.2491 28.0996 79.8116 25.6203C77.374 23.1409 74.4802 21.1742 71.2954 19.8324C68.1106 18.4906 64.6972 17.8 61.25 17.8C54.2881 17.8 47.6113 20.613 42.6884 25.6203C37.7656 30.6275 35 37.4187 35 44.5C35 51.5813 37.7656 58.3725 42.6884 63.3798C47.6113 68.387 54.2881 71.2 61.25 71.2ZM122.5 169.1C122.5 171.46 121.578 173.724 119.937 175.393C118.296 177.062 116.071 178 113.75 178C111.429 178 109.204 177.062 107.563 175.393C105.922 173.724 105 171.46 105 169.1V151.3C105 144.219 102.234 137.427 97.3116 132.42C92.3887 127.413 85.7119 124.6 78.75 124.6H43.75C36.7881 124.6 30.1113 127.413 25.1884 132.42C20.2656 137.427 17.5 144.219 17.5 151.3V169.1C17.5 171.46 16.5781 173.724 14.9372 175.393C13.2962 177.062 11.0706 178 8.75 178C6.42936 178 4.20376 177.062 2.56282 175.393C0.921872 173.724 0 171.46 0 169.1V151.3C0 139.498 4.60936 128.179 12.8141 119.834C21.0188 111.488 32.1468 106.8 43.75 106.8H78.75C90.3532 106.8 101.481 111.488 109.686 119.834C117.891 128.179 122.5 139.498 122.5 151.3V169.1ZM131.25 124.6C128.929 124.6 126.704 123.662 125.063 121.993C123.422 120.324 122.5 118.06 122.5 115.7C122.5 113.34 123.422 111.076 125.063 109.407C126.704 107.738 128.929 106.8 131.25 106.8C142.853 106.8 153.981 111.488 162.186 119.834C170.391 128.179 175 139.498 175 151.3V169.1C175 171.46 174.078 173.724 172.437 175.393C170.796 177.062 168.571 178 166.25 178C163.929 178 161.704 177.062 160.063 175.393C158.422 173.724 157.5 171.46 157.5 169.1V151.3C157.5 144.219 154.734 137.427 149.812 132.42C144.889 127.413 138.212 124.6 131.25 124.6ZM113.75 89C111.429 89 109.204 88.0623 107.563 86.3932C105.922 84.7242 105 82.4604 105 80.1C105 77.7396 105.922 75.4758 107.563 73.8067C109.204 72.1377 111.429 71.2 113.75 71.2C120.712 71.2 127.389 68.387 132.312 63.3798C137.234 58.3725 140 51.5813 140 44.5C140 37.4187 137.234 30.6275 132.312 25.6203C127.389 20.613 120.712 17.8 113.75 17.8C111.429 17.8 109.204 16.8623 107.563 15.1933C105.922 13.5242 105 11.2604 105 8.9C105 6.53957 105.922 4.27582 107.563 2.60675C109.204 0.937675 111.429 0 113.75 0C125.353 0 136.481 4.68838 144.686 13.0337C152.891 21.3791 157.5 32.6979 157.5 44.5C157.5 56.3021 152.891 67.6209 144.686 75.9663C136.481 84.3116 125.353 89 113.75 89Z" fill="url(#paint0_linear_940_574)"/>
<path d="M61.25 89C49.6468 89 38.5188 84.3116 30.3141 75.9663C22.1094 67.6209 17.5 56.3021 17.5 44.5C17.5 32.6979 22.1094 21.3791 30.3141 13.0337C38.5188 4.68838 49.6468 0 61.25 0C72.8532 0 83.9812 4.68838 92.1859 13.0337C100.391 21.3791 105 32.6979 105 44.5C105 56.3021 100.391 67.6209 92.1859 75.9663C83.9812 84.3116 72.8532 89 61.25 89ZM61.25 71.2C64.6972 71.2 68.1106 70.5094 71.2954 69.1676C74.4802 67.8258 77.374 65.8591 79.8116 63.3798C82.2491 60.9004 84.1827 57.957 85.5018 54.7176C86.821 51.4783 87.5 48.0063 87.5 44.5C87.5 40.9937 86.821 37.5217 85.5018 34.2824C84.1827 31.043 82.2491 28.0996 79.8116 25.6203C77.374 23.1409 74.4802 21.1742 71.2954 19.8324C68.1106 18.4906 64.6972 17.8 61.25 17.8C54.2881 17.8 47.6113 20.613 42.6884 25.6203C37.7656 30.6275 35 37.4187 35 44.5C35 51.5813 37.7656 58.3725 42.6884 63.3798C47.6113 68.387 54.2881 71.2 61.25 71.2ZM122.5 169.1C122.5 171.46 121.578 173.724 119.937 175.393C118.296 177.062 116.071 178 113.75 178C111.429 178 109.204 177.062 107.563 175.393C105.922 173.724 105 171.46 105 169.1V151.3C105 144.219 102.234 137.427 97.3116 132.42C92.3887 127.413 85.7119 124.6 78.75 124.6H43.75C36.7881 124.6 30.1113 127.413 25.1884 132.42C20.2656 137.427 17.5 144.219 17.5 151.3V169.1C17.5 171.46 16.5781 173.724 14.9372 175.393C13.2962 177.062 11.0706 178 8.75 178C6.42936 178 4.20376 177.062 2.56282 175.393C0.921872 173.724 0 171.46 0 169.1V151.3C0 139.498 4.60936 128.179 12.8141 119.834C21.0188 111.488 32.1468 106.8 43.75 106.8H78.75C90.3532 106.8 101.481 111.488 109.686 119.834C117.891 128.179 122.5 139.498 122.5 151.3V169.1ZM131.25 124.6C128.929 124.6 126.704 123.662 125.063 121.993C123.422 120.324 122.5 118.06 122.5 115.7C122.5 113.34 123.422 111.076 125.063 109.407C126.704 107.738 128.929 106.8 131.25 106.8C142.853 106.8 153.981 111.488 162.186 119.834C170.391 128.179 175 139.498 175 151.3V169.1C175 171.46 174.078 173.724 172.437 175.393C170.796 177.062 168.571 178 166.25 178C163.929 178 161.704 177.062 160.063 175.393C158.422 173.724 157.5 171.46 157.5 169.1V151.3C157.5 144.219 154.734 137.427 149.812 132.42C144.889 127.413 138.212 124.6 131.25 124.6ZM113.75 89C111.429 89 109.204 88.0623 107.563 86.3932C105.922 84.7242 105 82.4604 105 80.1C105 77.7396 105.922 75.4758 107.563 73.8067C109.204 72.1377 111.429 71.2 113.75 71.2C120.712 71.2 127.389 68.387 132.312 63.3798C137.234 58.3725 140 51.5813 140 44.5C140 37.4187 137.234 30.6275 132.312 25.6203C127.389 20.613 120.712 17.8 113.75 17.8C111.429 17.8 109.204 16.8623 107.563 15.1933C105.922 13.5242 105 11.2604 105 8.9C105 6.53957 105.922 4.27582 107.563 2.60675C109.204 0.937675 111.429 0 113.75 0C125.353 0 136.481 4.68838 144.686 13.0337C152.891 21.3791 157.5 32.6979 157.5 44.5C157.5 56.3021 152.891 67.6209 144.686 75.9663C136.481 84.3116 125.353 89 113.75 89Z" fill="url(#paint1_linear_940_574)"/>
</g>
<defs>
<linearGradient id="paint0_linear_940_574" x1="87.5" y1="0" x2="87.5" y2="178" gradientUnits="userSpaceOnUse">
<stop stop-color="#8A998E"/>
<stop offset="1" stop-color="#6A706C" stop-opacity="0.55"/>
</linearGradient>
<linearGradient id="paint1_linear_940_574" x1="87.5" y1="0" x2="87.5" y2="178" gradientUnits="userSpaceOnUse">
<stop stop-color="#8A998E"/>
<stop offset="1" stop-color="#6A706C" stop-opacity="0.55"/>
</linearGradient>
</defs>
</svg>
