<svg width="179" height="149" viewBox="0 0 179 149" fill="none" xmlns="http://www.w3.org/2000/svg">
<path d="M26.85 10.6429C26.85 4.75603 30.8495 0 35.8 0H44.75C49.7005 0 53.7 4.75603 53.7 10.6429V63.8571V85.1429V138.357C53.7 144.244 49.7005 149 44.75 149H35.8C30.8495 149 26.85 144.244 26.85 138.357V117.071H17.9C12.9495 117.071 8.95 112.315 8.95 106.429V85.1429C3.99953 85.1429 0 80.3868 0 74.5C0 68.6132 3.99953 63.8571 8.95 63.8571V42.5714C8.95 36.6846 12.9495 31.9286 17.9 31.9286H26.85V10.6429ZM152.15 10.6429V31.9286H161.1C166.05 31.9286 170.05 36.6846 170.05 42.5714V63.8571C175 63.8571 179 68.6132 179 74.5C179 80.3868 175 85.1429 170.05 85.1429V106.429C170.05 112.315 166.05 117.071 161.1 117.071H152.15V138.357C152.15 144.244 148.15 149 143.2 149H134.25C129.3 149 125.3 144.244 125.3 138.357V85.1429V63.8571V10.6429C125.3 4.75603 129.3 0 134.25 0H143.2C148.15 0 152.15 4.75603 152.15 10.6429ZM116.35 63.8571V85.1429H62.65V63.8571H116.35Z" fill="url(#paint0_linear_990_784)"/>
<defs>
<linearGradient id="paint0_linear_990_784" x1="89.5" y1="0" x2="89.5" y2="149" gradientUnits="userSpaceOnUse">
<stop stop-color="#8A998E" stop-opacity="0.7"/>
<stop offset="1" stop-color="#6A706C" stop-opacity="0"/>
</linearGradient>
</defs>
</svg>
