<svg width="164" height="154" viewBox="0 0 164 154" fill="none" xmlns="http://www.w3.org/2000/svg">
<path d="M152.185 44.0518L116.489 88.0927L105.672 74.8496L93.9401 89.4272L116.406 117.145L164 58.6294L152.185 44.0518ZM16.6413 41.0746C16.5388 46.5018 17.3297 51.8982 18.966 56.9374C20.6023 61.9767 23.0502 66.554 26.1614 70.3926C29.2726 74.2312 32.9826 77.2513 37.067 79.2702C41.1513 81.2891 45.5252 82.2648 49.9239 82.1384C54.3227 82.2648 58.6965 81.2891 62.7808 79.2702C66.8652 77.2513 70.5752 74.2312 73.6864 70.3926C76.7976 66.554 79.2455 61.9767 80.8818 56.9374C82.5181 51.8982 83.309 46.5018 83.2065 41.0746C83.309 35.6475 82.5181 30.2511 80.8818 25.2119C79.2455 20.1726 76.7976 15.5953 73.6864 11.7567C70.5752 7.91808 66.8652 4.89799 62.7808 2.8791C58.6965 0.860204 54.3227 -0.11554 49.9239 0.0108878C45.5252 -0.11554 41.1513 0.860204 37.067 2.8791C32.9826 4.89799 29.2726 7.91808 26.1614 11.7567C23.0502 15.5953 20.6023 20.1726 18.966 25.2119C17.3297 30.2511 16.5388 35.6475 16.6413 41.0746ZM66.5652 41.0746C66.6722 43.8059 66.315 46.5346 65.5166 49.0854C64.7182 51.6362 63.4961 53.9528 61.9289 55.8864C60.3618 57.8199 58.4842 59.3277 56.4167 60.3128C54.3492 61.2979 52.1376 61.7386 49.9239 61.6065C47.7102 61.7386 45.4986 61.2979 43.4311 60.3128C41.3636 59.3277 39.486 57.8199 37.9188 55.8864C36.3517 53.9528 35.1297 51.6362 34.3312 49.0854C33.5328 46.5346 33.1756 43.8059 33.2826 41.0746C33.1756 38.3434 33.5328 35.6147 34.3312 33.0639C35.1297 30.5131 36.3517 28.1965 37.9188 26.2629C39.486 24.3294 41.3636 22.8216 43.4311 21.8365C45.4986 20.8514 47.7102 20.4107 49.9239 20.5428C52.1376 20.4107 54.3492 20.8514 56.4167 21.8365C58.4842 22.8216 60.3618 24.3294 61.9289 26.2629C63.4961 28.1965 64.7182 30.5131 65.5166 33.0639C66.315 35.6147 66.6722 38.3434 66.5652 41.0746ZM16.6413 143.734C16.6413 135.566 19.2712 127.732 23.9525 121.957C28.6338 116.181 34.9829 112.936 41.6032 112.936H58.2445C64.8649 112.936 71.214 116.181 75.8953 121.957C80.5766 127.732 83.2065 135.566 83.2065 143.734V154H99.8478V143.734C99.8478 136.993 98.7717 130.319 96.6809 124.091C94.5902 117.863 91.5257 112.205 87.6625 107.438C83.7993 102.672 79.213 98.8912 74.1654 96.3116C69.1179 93.732 63.708 92.4044 58.2445 92.4044H41.6032C30.5694 92.4044 19.9874 97.8123 12.1853 107.438C4.38319 117.065 0 130.121 0 143.734V154H16.6413V143.734Z" fill="url(#paint0_linear_990_798)"/>
<defs>
<linearGradient id="paint0_linear_990_798" x1="82" y1="0" x2="82" y2="154" gradientUnits="userSpaceOnUse">
<stop stop-color="#8A998E" stop-opacity="0.7"/>
<stop offset="1" stop-color="#6A706C" stop-opacity="0"/>
</linearGradient>
</defs>
</svg>
