<svg width="249" height="83" viewBox="0 0 249 83" fill="none" xmlns="http://www.w3.org/2000/svg">
<path d="M35.8785 25.7225C34.9186 25.7225 34.1063 25.3903 33.4417 24.7257C32.7772 24.0611 32.4449 23.2489 32.4449 22.2889C32.4449 21.329 32.7772 20.5168 33.4417 19.8522C34.1063 19.1876 34.9186 18.8553 35.8785 18.8553C36.8015 18.8553 37.5768 19.1876 38.2045 19.8522C38.869 20.5168 39.2013 21.329 39.2013 22.2889C39.2013 23.2489 38.869 24.0611 38.2045 24.7257C37.5768 25.3903 36.8015 25.7225 35.8785 25.7225ZM38.3152 30.6514V61H33.2756V30.6514H38.3152ZM53.0517 34.805V52.6929C53.0517 54.1697 53.3655 55.222 53.9931 55.8496C54.6208 56.4403 55.7099 56.7357 57.2606 56.7357H60.9711V61H56.4299C53.6239 61 51.5195 60.3539 50.1165 59.0617C48.7135 57.7695 48.012 55.6465 48.012 52.6929V34.805H44.08V30.6514H48.012V23.0089H53.0517V30.6514H60.9711V34.805H53.0517ZM119.744 22.1228L109.61 61H98.1458L91.9432 35.4141L85.519 61H74.0552L64.1975 22.1228H74.3321L79.9256 50.4223L86.8481 22.1228H97.2597L103.905 50.4223L109.554 22.1228H119.744ZM148.695 54.1328H134.185L131.859 61H121.946L136.013 22.1228H146.978L161.045 61H151.021L148.695 54.1328ZM146.258 46.8226L141.44 32.5897L136.677 46.8226H146.258ZM201.822 22.1228L188.032 61H176.181L162.391 22.1228H172.47L182.106 51.4745L191.798 22.1228H201.822ZM215.25 29.7099V37.574H227.932V44.8842H215.25V53.4129H229.593V61H205.78V22.1228H229.593V29.7099H215.25ZM240.172 61.443C238.511 61.443 237.145 60.9631 236.074 60.0031C235.04 59.0063 234.523 57.7879 234.523 56.348C234.523 54.8712 235.04 53.6344 236.074 52.6375C237.145 51.6407 238.511 51.1422 240.172 51.1422C241.797 51.1422 243.126 51.6407 244.159 52.6375C245.23 53.6344 245.765 54.8712 245.765 56.348C245.765 57.7879 245.23 59.0063 244.159 60.0031C243.126 60.9631 241.797 61.443 240.172 61.443Z" fill="#504A4A"/>
<path d="M31.6466 19.3371L29.8932 29.2477H17.6955C16.2318 29.2477 14.8494 31.1281 14.3412 32.0684L13.0452 38.9295H27.6061L7.17505 68.6613L10.9868 48.9926H1C2.11812 43.6561 4.44583 32.5105 4.81176 30.6199C5.17769 28.7293 6.23482 26.2237 6.71764 25.2072C7.45458 24.1145 9.58409 21.6241 12.2066 20.4044C14.8291 19.1846 15.3322 19.1846 15.256 19.3371H31.6466Z" fill="#504A4A" stroke="#504A4A" stroke-width="0.15247"/>
</svg>
