<svg width="27" height="28" viewBox="0 0 27 28" fill="none" xmlns="http://www.w3.org/2000/svg">
<path fill-rule="evenodd" clip-rule="evenodd" d="M9.09118 2.91997C9.09118 1.40797 10.3178 0.181396 11.8298 0.181396H24.2382C24.9642 0.181908 25.6602 0.470661 26.1734 0.984187C26.6866 1.49771 26.9748 2.19399 26.9748 2.91997V24.1921C26.9748 24.9184 26.6863 25.615 26.1727 26.1286C25.6591 26.6422 24.9626 26.9307 24.2363 26.9307H14.7863C14.9348 26.518 15.0177 26.0725 15.0177 25.6096V22.1035C15.0177 21.944 15.0113 21.7853 14.9984 21.6271C15.3353 21.6875 15.6766 21.7178 16.0225 21.7178H18.6685C19.5969 21.7178 20.4943 21.3828 21.1957 20.7745C21.8971 20.1662 22.3555 19.3252 22.4868 18.4061C22.6181 17.487 22.4135 16.5513 21.9105 15.7709C21.4074 14.9905 20.6398 14.4177 19.7485 14.1578C20.3698 13.5775 20.8496 12.8623 21.1509 12.0674C21.4523 11.2724 21.5671 10.4189 21.4866 9.57262C21.4061 8.72629 21.1325 7.90974 20.6866 7.18587C20.2408 6.462 19.6348 5.85012 18.9152 5.39738C18.1957 4.94464 17.3818 4.66312 16.5363 4.57451C15.6908 4.48589 14.8362 4.59255 14.0384 4.88626C13.2406 5.17997 12.5209 5.65289 11.9347 6.2686C11.3485 6.88431 10.9114 7.62637 10.6572 8.43761C10.1586 8.22567 9.63278 8.08479 9.09504 8.01911V2.91997H9.09118ZM12.8133 10.0981C12.8133 9.26438 13.1445 8.4648 13.7341 7.87527C14.3236 7.28574 15.1232 6.95454 15.9569 6.95454C16.7906 6.95454 17.5902 7.28574 18.1797 7.87527C18.7693 8.4648 19.1005 9.26438 19.1005 10.0981C19.1005 10.9318 18.7693 11.7314 18.1797 12.321C17.5902 12.9105 16.7906 13.2417 15.9569 13.2417C15.1232 13.2417 14.3236 12.9105 13.7341 12.321C13.1445 11.7314 12.8133 10.9318 12.8133 10.0981ZM12.9734 13.2224L12.9773 13.2282L15.8508 16.1018C15.8968 16.1467 15.9582 16.1722 16.0225 16.1731H18.6665C19.1141 16.1731 19.5433 16.3509 19.8598 16.6674C20.1762 16.9838 20.354 17.4131 20.354 17.8606C20.354 18.3082 20.1762 18.7374 19.8598 19.0539C19.5433 19.3703 19.1141 19.5481 18.6665 19.5481H16.0225C15.064 19.5481 14.144 19.1682 13.4652 18.4893L11.7796 16.8038L10.4103 18.173L11.7873 19.5462C12.4643 20.225 12.8461 21.145 12.8461 22.1035V25.1275C12.8461 25.575 12.6683 26.0042 12.3519 26.3207C12.0354 26.6372 11.6062 26.815 11.1586 26.815C10.7111 26.815 10.2818 26.6372 9.96537 26.3207C9.6489 26.0042 9.47111 25.575 9.47111 25.1275V22.1035C9.46971 22.0399 9.4442 21.9792 9.39975 21.9338L8.00154 20.5336C7.37223 21.0108 6.60432 21.2695 5.81454 21.2703H1.92847C1.48091 21.2703 1.05169 21.0925 0.735224 20.7761C0.418756 20.4596 0.240967 20.0304 0.240967 19.5828C0.240967 19.1353 0.418756 18.7061 0.735224 18.3896C1.05169 18.0731 1.48091 17.8953 1.92847 17.8953H5.81454C5.87878 17.8944 5.94022 17.8689 5.98618 17.824L9.39204 14.4162L8.56661 13.5927C8.52113 13.5482 8.46047 13.5227 8.3969 13.5213H4.89075C4.4432 13.5213 4.01398 13.3435 3.69751 13.0271C3.38104 12.7106 3.20325 12.2814 3.20325 11.8338C3.20325 11.3863 3.38104 10.9571 3.69751 10.6406C4.01398 10.3241 4.4432 10.1463 4.89075 10.1463H8.39882C9.35732 10.1463 10.2773 10.5282 10.9542 11.207L12.9676 13.2185L12.9734 13.2224Z" fill="white"/>
</svg>
